<?xml version="1.0" standalone="no"?>
<!DOCTYPE svg PUBLIC "-//W3C//DTD SVG 1.1//EN" "http://www.w3.org/Graphics/SVG/1.1/DTD/svg11.dtd" >
<svg xmlns="http://www.w3.org/2000/svg">
<metadata>
<json>
<![CDATA[
{
	"fontFamily": "ni-icon-outline",
	"majorVersion": 1,
	"minorVersion": 0,
	"version": "Version 1.0",
	"fontId": "ni-icon-outline",
	"psName": "ni-icon-outline",
	"subFamily": "Regular",
	"fullName": "ni-icon-outline",
	"description": "Font generated by IcoMoon."
}
]]>
</json>
</metadata>
<defs>
<font id="ni-icon-outline" horiz-adv-x="1024">
<font-face units-per-em="1024" ascent="960" descent="-64" />
<missing-glyph horiz-adv-x="1024" />
<glyph unicode="&#x20;" horiz-adv-x="512" d="" />
<glyph unicode="&#xe900;" glyph-name="k" data-tags="k" d="M810.667 832h-597.333c-46.933 0-85.333-38.4-85.333-85.333v-597.333c0-46.933 38.4-85.333 85.333-85.333h597.333c46.933 0 85.333 38.4 85.333 85.333v597.333c0 46.933-38.4 85.333-85.333 85.333zM810.667 149.333h-597.333v597.333h597.333v-597.333zM362.667 320h64v256h-128v-64h64zM576 416l74.667-96h74.667l-96 128 96 128h-74.667l-74.667-96v96h-64v-256h64z" />
<glyph unicode="&#xe901;" glyph-name="k-plus" data-tags="k-plus" d="M810.667 832h-597.333c-46.933 0-85.333-38.4-85.333-85.333v-597.333c0-46.933 38.4-85.333 85.333-85.333h597.333c46.933 0 85.333 38.4 85.333 85.333v597.333c0 46.933-38.4 85.333-85.333 85.333zM810.667 469.333h-64v64h-42.667v-64h-64v-42.667h64v-64h42.667v64h64v-277.333h-597.333v597.333h597.333v-277.333zM320 320h64v256h-128v-64h64zM512 416l74.667-96h74.667l-96 128 96 128h-74.667l-74.667-96v96h-64v-256h64z" />
<glyph unicode="&#xe902;" glyph-name="x-mobiledata" data-tags="x-mobiledata" d="M170.667 661.333h170.667v-426.667h-85.333v341.333h-85.333v85.333zM675.413 459.947l120.747 201.387h-99.413l-70.827-118.187-71.253 118.187h-99.413l120.747-201.387-135.253-225.28h99.413l85.333 142.507 85.333-142.507h99.84l-135.253 225.28z" />
<glyph unicode="&#xe903;" glyph-name="k1" data-tags="k" d="M810.667 832h-597.333c-46.933 0-85.333-38.4-85.333-85.333v-597.333c0-46.933 38.4-85.333 85.333-85.333h597.333c46.933 0 85.333 38.4 85.333 85.333v597.333c0 46.933-38.4 85.333-85.333 85.333zM810.667 149.333h-597.333v597.333h597.333v-597.333zM469.333 384h-128v42.667h85.333c23.467 0 42.667 19.2 42.667 42.667v64c0 23.467-19.2 42.667-42.667 42.667h-149.333v-64h128v-42.667h-85.333c-23.467 0-42.667-19.2-42.667-42.667v-106.667h192v64zM618.667 416l74.667-96h74.667l-96 128 96 128h-74.667l-74.667-96v96h-64v-256h64z" />
<glyph unicode="&#xe904;" glyph-name="k-plus1" data-tags="k-plus" d="M810.667 832h-597.333c-46.933 0-85.333-38.4-85.333-85.333v-597.333c0-46.933 38.4-85.333 85.333-85.333h597.333c46.933 0 85.333 38.4 85.333 85.333v597.333c0 46.933-38.4 85.333-85.333 85.333zM810.667 469.333h-64v64h-42.667v-64h-64v-42.667h64v-64h42.667v64h64v-277.333h-597.333v597.333h597.333v-277.333zM426.667 384h-106.667v42.667h64c23.467 0 42.667 19.2 42.667 42.667v64c0 23.467-19.2 42.667-42.667 42.667h-128v-64h106.667v-42.667h-64c-23.467 0-42.667-19.2-42.667-42.667v-106.667h170.667v64zM533.333 416l74.667-96h74.667l-96 128 96 128h-74.667l-74.667-96v96h-64v-256h64z" />
<glyph unicode="&#xe905;" glyph-name="mp" data-tags="mp" d="M320 362.667h42.667v-128h64v128h42.667v-192h64v213.333c0 23.467-19.2 42.667-42.667 42.667h-192c-23.467 0-42.667-19.2-42.667-42.667v-213.333h64v192zM576 170.667h64v64h85.333c23.467 0 42.667 19.2 42.667 42.667v106.667c0 23.467-19.2 42.667-42.667 42.667h-149.333v-256zM640 362.667h64v-64h-64v64zM810.667 832h-597.333c-46.933 0-85.333-38.4-85.333-85.333v-597.333c0-46.933 38.4-85.333 85.333-85.333h597.333c46.933 0 85.333 38.4 85.333 85.333v597.333c0 46.933-38.4 85.333-85.333 85.333zM810.667 149.333h-597.333v597.333h597.333v-597.333zM618.667 533.333h-128v42.667h85.333c23.467 0 42.667 19.2 42.667 42.667v64c0 23.467-19.2 42.667-42.667 42.667h-149.333v-64h128v-42.667h-85.333c-23.467 0-42.667-19.2-42.667-42.667v-106.667h192v64z" />
<glyph unicode="&#xe906;" glyph-name="d-rotation" data-tags="d-rotation" d="M321.28 43.52c-140.214 67.158-238.79 201.37-254.57 359.95l-0.15 1.863h-64c21.76-262.827 241.493-469.333 509.867-469.333l28.16 1.28-162.56 162.56-56.747-56.32zM359.253 321.707c-8.107 0-15.787 1.28-22.187 3.413-6.648 2.247-12.35 5.749-17.085 10.258l0.019-0.018c-4.693 4.267-8.533 9.387-11.093 15.787-2.56 5.973-3.84 12.8-3.84 20.053h-55.467c0-15.36 2.987-29.013 8.96-40.533s14.080-21.333 23.893-29.44c10.24-7.68 21.76-13.653 34.987-17.493 12.8-4.267 26.453-6.4 40.96-6.4 15.787 0 30.72 2.133 43.947 6.4 13.653 4.267 25.6 10.667 35.413 18.773s17.92 18.347 23.467 30.72 8.533 26.027 8.533 41.387c0 8.107-0.853 16.213-2.987 23.893-2.198 8.273-5.564 15.523-9.973 22.008l0.159-0.248c-4.267 6.827-10.24 12.8-17.067 18.347-7.253 5.547-15.787 9.813-26.027 13.227 15.683 7.1 28.555 18.055 37.772 31.684l0.202 0.316c4.267 6.4 7.253 12.8 9.387 19.627s2.987 13.653 2.987 20.48c0 15.36-2.56 29.013-7.68 40.96s-12.373 21.76-21.76 29.44c-8.533 8.107-20.053 14.080-32.853 18.347-13.227 3.84-27.733 5.973-43.52 5.973-15.36 0-29.44-2.133-42.667-6.827-12.8-4.693-24.32-11.093-33.707-19.2-8.96-8.107-16.213-17.493-21.76-28.587-5.12-11.093-7.68-23.040-7.68-36.267h55.467c0 7.253 1.28 13.653 3.84 19.2s5.973 10.667 10.667 14.507 9.813 7.253 16.213 9.387 12.8 3.413 20.48 3.413c17.067 0 29.867-4.267 37.973-13.227 8.107-8.533 12.373-20.907 12.373-36.693 0-7.68-1.28-14.507-3.413-20.907s-5.973-11.52-10.667-15.787c-4.693-4.267-10.667-7.68-17.493-10.24s-15.36-3.84-24.747-3.84h-32.853v-43.947h32.853c9.387 0 17.92-0.853 25.6-2.987s14.080-5.547 19.2-9.813c5.12-4.693 9.387-10.24 12.373-17.067s4.267-14.933 4.267-24.32c0-17.493-5.12-30.72-14.933-39.68-9.813-9.813-23.467-14.080-40.533-14.080zM724.053 574.293c-13.653 14.080-29.867 25.173-48.64 32.853s-39.68 11.52-62.72 11.52h-100.693v-341.333h98.133c23.467 0 45.227 3.84 64.427 11.52s35.84 18.347 49.493 32.427c13.653 14.080 24.32 31.147 31.573 50.773 7.253 20.053 11.093 42.24 11.093 66.987v17.067c0 24.747-3.84 46.933-11.093 66.987s-17.92 37.12-31.573 51.2zM707.413 439.467c0-17.92-2.133-33.707-5.973-48.213-4.267-14.080-10.24-26.453-18.347-36.267s-18.347-17.493-30.293-22.613c-12.373-5.12-26.453-7.68-42.24-7.68h-38.827v246.187h41.387c30.72 0 54.187-9.813 69.973-29.44 16.213-19.627 24.32-47.787 24.32-84.907v-17.067zM512.427 960l-28.16-1.28 162.56-162.56 56.747 56.747c139.52-66.133 239.36-201.387 254.293-361.813h64c-21.333 262.4-241.067 468.907-509.44 468.907z" />
<glyph unicode="&#xe907;" glyph-name="g-mobiledata" data-tags="g-mobiledata" d="M128 661.333v-85.333h213.333v-85.333h-170.667v-85.333h170.667v-85.333h-213.333v-85.333h213.333c46.933 0 85.333 38.4 85.333 85.333v64c0 35.413-28.587 64-64 64 35.413 0 64 28.587 64 64v64c0 46.933-38.4 85.333-85.333 85.333h-213.333zM896 490.667v-170.667c0-46.933-38.4-85.333-85.333-85.333h-213.333c-46.933 0-85.333 38.4-85.333 85.333v256c0 46.933 38.4 85.333 85.333 85.333h213.333c46.933 0 85.333-38.4 85.333-85.333h-298.667v-256h213.333v85.333h-106.667v85.333h192z" />
<glyph unicode="&#xe908;" glyph-name="k2" data-tags="k" d="M810.667 832h-597.333c-46.933 0-85.333-38.4-85.333-85.333v-597.333c0-46.933 38.4-85.333 85.333-85.333h597.333c46.933 0 85.333 38.4 85.333 85.333v597.333c0 46.933-38.4 85.333-85.333 85.333zM810.667 149.333h-597.333v597.333h597.333v-597.333zM469.333 362.667v170.667c0 23.467-19.2 42.667-42.667 42.667h-149.333v-64h128v-42.667h-85.333v-42.667h85.333v-42.667h-128v-64h149.333c23.467 0 42.667 19.2 42.667 42.667zM618.667 416l74.667-96h74.667l-96 128 96 128h-74.667l-74.667-96v96h-64v-256h64z" />
<glyph unicode="&#xe909;" glyph-name="k-plus2" data-tags="k-plus" d="M810.667 832h-597.333c-46.933 0-85.333-38.4-85.333-85.333v-597.333c0-46.933 38.4-85.333 85.333-85.333h597.333c46.933 0 85.333 38.4 85.333 85.333v597.333c0 46.933-38.4 85.333-85.333 85.333zM810.667 469.333h-64v64h-42.667v-64h-64v-42.667h64v-64h42.667v64h64v-277.333h-597.333v597.333h597.333v-277.333zM426.667 362.667v170.667c0 23.467-19.2 42.667-42.667 42.667h-149.333v-64h128v-42.667h-85.333v-42.667h85.333v-42.667h-128v-64h149.333c23.467 0 42.667 19.2 42.667 42.667zM533.333 416l74.667-96h74.667l-96 128 96 128h-74.667l-74.667-96v96h-64v-256h64z" />
<glyph unicode="&#xe90a;" glyph-name="mp1" data-tags="mp" d="M320 362.667h42.667v-128h64v128h42.667v-192h64v213.333c0 23.467-19.2 42.667-42.667 42.667h-192c-23.467 0-42.667-19.2-42.667-42.667v-213.333h64v192zM576 426.667v-256h64v64h85.333c23.467 0 42.667 19.2 42.667 42.667v106.667c0 23.467-19.2 42.667-42.667 42.667h-149.333zM704 298.667h-64v64h64v-64zM810.667 832h-597.333c-46.933 0-85.333-38.4-85.333-85.333v-597.333c0-46.933 38.4-85.333 85.333-85.333h597.333c46.933 0 85.333 38.4 85.333 85.333v597.333c0 46.933-38.4 85.333-85.333 85.333zM810.667 149.333h-597.333v597.333h597.333v-597.333zM618.667 512v170.667c0 23.467-19.2 42.667-42.667 42.667h-149.333v-64h128v-42.667h-85.333v-42.667h85.333v-42.667h-128v-64h149.333c23.467 0 42.667 19.2 42.667 42.667z" />
<glyph unicode="&#xe90b;" glyph-name="p" data-tags="p" d="M853.333 874.667h-682.24c-46.933 0-85.333-38.4-85.333-85.333l-0.427-768 170.667 170.667h597.333c46.933 0 85.333 38.4 85.333 85.333v512c0 46.933-38.4 85.333-85.333 85.333zM853.333 277.333h-632.747l-49.92-49.92v561.92h682.667v-512zM512 533.333c46.933 0 85.333 38.4 85.333 85.333s-38.4 85.333-85.333 85.333-85.333-38.4-85.333-85.333 38.4-85.333 85.333-85.333zM682.667 386.987c0 34.56-20.48 65.28-52.053 78.933-34.932 15.644-75.709 24.756-118.613 24.756s-83.681-9.112-120.5-25.506l1.886 0.75c-30.865-13.438-52.053-43.674-52.053-78.858 0-0.026 0-0.053 0-0.079v0.004-24.32h341.333v24.32z" />
<glyph unicode="&#xe90c;" glyph-name="g-mobiledata1" data-tags="g-mobiledata" d="M384 661.333h-85.333v-213.333h-85.333v213.333h-85.333v-298.667h170.667v-128h85.333v128h85.333v85.333h-85.333v213.333zM725.333 490.667v-85.333h85.333v-85.333h-213.333v256h298.667c0 46.933-38.4 85.333-85.333 85.333h-213.333c-46.933 0-85.333-38.4-85.333-85.333v-256c0-46.933 38.4-85.333 85.333-85.333h213.333c46.933 0 85.333 38.4 85.333 85.333v170.667h-170.667z" />
<glyph unicode="&#xe90d;" glyph-name="g-plus-mobiledata" data-tags="g-plus-mobiledata" d="M554.667 490.667v-85.333h85.333v-85.333h-170.667v256h256c0 46.933-38.4 85.333-85.333 85.333h-170.667c-46.933 0-85.333-38.4-85.333-85.333v-256c0-46.933 38.4-85.333 85.333-85.333h170.667c46.933 0 85.333 38.4 85.333 85.333v170.667h-170.667zM1024 490.667h-85.333v85.333h-85.333v-85.333h-85.333v-85.333h85.333v-85.333h85.333v85.333h85.333v85.333zM298.667 661.333h-85.333v-213.333h-85.333v213.333h-85.333v-298.667h170.667v-128h85.333v128h42.667v85.333h-42.667v213.333z" />
<glyph unicode="&#xe90e;" glyph-name="k3" data-tags="k" d="M810.667 832h-597.333c-46.933 0-85.333-38.4-85.333-85.333v-597.333c0-47.128 38.205-85.333 85.333-85.333v0h597.333c46.933 0 85.333 38.4 85.333 85.333v597.333c0 47.128-38.205 85.333-85.333 85.333v0zM810.667 149.333h-597.333v597.333h597.333v-597.333zM405.333 320h64v63.573h42.667v64.427h-42.667v128h-64v-128h-64v128h-64v-192h128zM776.533 320l-85.333 128 85.333 128h-72.533l-85.333-128 85.333-128zM618.667 448v128h-64v-256h64z" />
<glyph unicode="&#xe90f;" glyph-name="k-plus3" data-tags="k-plus" d="M810.667 832h-597.333c-46.933 0-85.333-38.4-85.333-85.333v-597.333c0-46.933 38.4-85.333 85.333-85.333h597.333c46.933 0 85.333 38.4 85.333 85.333v597.333c0 46.933-38.4 85.333-85.333 85.333zM810.667 469.333h-64v64h-42.667v-64h-64v-42.667h64v-64h42.667v64h64v-277.333h-597.333v597.333h597.333v-277.333zM362.667 320h64v64h42.667v64h-42.667v128h-64v-128h-64v128h-64v-192h128zM554.667 416l74.667-96h74.667l-96 128 96 128h-74.667l-74.667-96v96h-64v-256h64z" />
<glyph unicode="&#xe910;" glyph-name="mp2" data-tags="mp" d="M320 362.667h42.667v-128h64v128h42.667v-192h64v213.333c0 23.467-19.2 42.667-42.667 42.667h-192c-23.467 0-42.667-19.2-42.667-42.667v-213.333h64v192zM576 170.667h64v64h85.333c23.467 0 42.667 19.2 42.667 42.667v106.667c0 23.467-19.2 42.667-42.667 42.667h-149.333v-256zM640 362.667h64v-64h-64v64zM810.667 832h-597.333c-46.933 0-85.333-38.4-85.333-85.333v-597.333c0-46.933 38.4-85.333 85.333-85.333h597.333c46.933 0 85.333 38.4 85.333 85.333v597.333c0 46.933-38.4 85.333-85.333 85.333zM810.667 149.333h-597.333v597.333h597.333v-597.333zM533.333 469.333h64v64h42.667v64h-42.667v128h-64v-128h-64v128h-64v-192h128z" />
<glyph unicode="&#xe911;" glyph-name="g" data-tags="g" d="M704 405.333h106.667v-85.333h-213.333v256h298.667c0 46.933-38.4 85.333-85.333 85.333h-213.333c-46.933 0-85.333-38.4-85.333-85.333v-256c0-46.933 38.4-85.333 85.333-85.333h213.333c46.933 0 85.333 38.4 85.333 85.333v170.667h-192v-85.333zM128 405.333h213.333v-85.333h-213.333v-85.333h213.333c46.933 0 85.333 38.4 85.333 85.333v85.333c0 46.933-38.4 85.333-85.333 85.333h-128v85.333h213.333v85.333h-298.667v-256z" />
<glyph unicode="&#xe912;" glyph-name="k4" data-tags="k" d="M810.667 832h-597.333c-46.933 0-85.333-38.4-85.333-85.333v-597.333c0-46.933 38.4-85.333 85.333-85.333h597.333c46.933 0 85.333 38.4 85.333 85.333v597.333c0 46.933-38.4 85.333-85.333 85.333zM810.667 149.333h-597.333v597.333h597.333v-597.333zM469.333 362.667v64c0 23.467-19.2 42.667-42.667 42.667h-85.333v42.667h128v64h-192v-149.333h128v-42.667h-128v-64h149.333c23.467 0 42.667 19.2 42.667 42.667zM618.667 416l74.667-96h74.667l-96 128 96 128h-74.667l-74.667-96v96h-64v-256h64z" />
<glyph unicode="&#xe913;" glyph-name="k-plus4" data-tags="k-plus" d="M810.667 832h-597.333c-46.933 0-85.333-38.4-85.333-85.333v-597.333c0-46.933 38.4-85.333 85.333-85.333h597.333c46.933 0 85.333 38.4 85.333 85.333v597.333c0 46.933-38.4 85.333-85.333 85.333zM810.667 469.333h-64v64h-42.667v-64h-64v-42.667h64v-64h42.667v64h64v-277.333h-597.333v597.333h597.333v-277.333zM426.667 362.667v64c0 23.467-19.2 42.667-42.667 42.667h-64v42.667h106.667v64h-170.667v-149.333h106.667v-42.667h-106.667v-64h128c23.467 0 42.667 19.2 42.667 42.667zM533.333 416l74.667-96h74.667l-96 128 96 128h-74.667l-74.667-96v96h-64v-256h64z" />
<glyph unicode="&#xe914;" glyph-name="mp3" data-tags="mp" d="M320 362.667h42.667v-128h64v128h42.667v-192h64v213.333c0 23.467-19.2 42.667-42.667 42.667h-192c-23.467 0-42.667-19.2-42.667-42.667v-213.333h64v192zM576 170.667h64v64h85.333c23.467 0 42.667 19.2 42.667 42.667v106.667c0 23.467-19.2 42.667-42.667 42.667h-149.333v-256zM640 362.667h64v-64h-64v64zM810.667 832h-597.333c-46.933 0-85.333-38.4-85.333-85.333v-597.333c0-46.933 38.4-85.333 85.333-85.333h597.333c46.933 0 85.333 38.4 85.333 85.333v597.333c0 46.933-38.4 85.333-85.333 85.333zM810.667 149.333h-597.333v597.333h597.333v-597.333zM618.667 512v64c0 23.467-19.2 42.667-42.667 42.667h-85.333v42.667h128v64h-192v-149.333h128v-42.667h-128v-64h149.333c23.467 0 42.667 19.2 42.667 42.667z" />
<glyph unicode="&#xe915;" glyph-name="ft-apart" data-tags="ft-apart" d="M256 704c46.933 0 85.333 38.4 85.333 85.333s-38.4 85.333-85.333 85.333-85.333-38.4-85.333-85.333 38.4-85.333 85.333-85.333zM426.667 557.653c0 34.56-20.48 65.28-52.053 78.933-34.932 15.644-75.709 24.756-118.613 24.756s-83.681-9.112-120.5-25.506l1.886 0.75c-30.865-13.438-52.053-43.674-52.053-78.858 0-0.026 0-0.053 0-0.079v0.004-24.32h341.333v24.32zM768 704c46.933 0 85.333 38.4 85.333 85.333s-38.4 85.333-85.333 85.333-85.333-38.4-85.333-85.333 38.4-85.333 85.333-85.333zM938.667 557.653c0 34.56-20.48 65.28-52.053 78.933-34.932 15.644-75.709 24.756-118.613 24.756s-83.681-9.112-120.5-25.506l1.886 0.75c-30.865-13.438-52.053-43.674-52.053-78.858 0-0.026 0-0.053 0-0.079v0.004-24.32h341.333v24.32zM810.667 234.667v85.76l-597.333-0.427v-85.333l-128 128 128 128v-85.76l597.333 0.427v85.333l128-128-128-128zM426.667 149.333v42.667h-106.667c-11.947 0-21.333-9.387-21.333-21.333v-128c0-11.947 9.387-21.333 21.333-21.333h85.333c11.947 0 21.333 9.387 21.333 21.333v64c0 11.947-9.387 21.333-21.333 21.333h-64v21.333h85.333zM384 85.333v-21.333h-42.667v21.333h42.667zM746.667 149.333h-42.667v-128h-42.667v128h-42.667v42.667h128v-42.667zM533.333 149.333v-21.333h42.667v-42.667h-42.667v-64h-42.667v170.667h106.667v-42.667h-64z" />
<glyph unicode="&#xe916;" glyph-name="k5" data-tags="k" d="M810.667 832h-597.333c-46.933 0-85.333-38.4-85.333-85.333v-597.333c0-46.933 38.4-85.333 85.333-85.333h597.333c46.933 0 85.333 38.4 85.333 85.333v597.333c0 46.933-38.4 85.333-85.333 85.333zM810.667 149.333h-597.333v597.333h597.333v-597.333zM618.667 416l74.667-96h74.667l-96 128 96 128h-74.667l-74.667-96v96h-64v-256h64zM320 320h106.667c23.467 0 42.667 19.2 42.667 42.667v64c0 23.467-19.2 42.667-42.667 42.667h-85.333v42.667h128v64h-149.333c-23.467 0-42.667-19.2-42.667-42.667v-170.667c0-23.467 19.2-42.667 42.667-42.667zM341.333 426.667h64v-64h-64v64z" />
<glyph unicode="&#xe917;" glyph-name="k-plus5" data-tags="k-plus" d="M810.667 832h-597.333c-46.933 0-85.333-38.4-85.333-85.333v-597.333c0-46.933 38.4-85.333 85.333-85.333h597.333c46.933 0 85.333 38.4 85.333 85.333v597.333c0 46.933-38.4 85.333-85.333 85.333zM810.667 469.333h-64v64h-42.667v-64h-64v-42.667h64v-64h42.667v64h64v-277.333h-597.333v597.333h597.333v-277.333zM533.333 416l74.667-96h74.667l-96 128 96 128h-74.667l-74.667-96v96h-64v-256h64zM298.667 320h85.333c23.467 0 42.667 19.2 42.667 42.667v64c0 23.467-19.2 42.667-42.667 42.667h-64v42.667h106.667v64h-128c-23.467 0-42.667-19.2-42.667-42.667v-170.667c0-23.467 19.2-42.667 42.667-42.667zM320 426.667h42.667v-64h-42.667v64z" />
<glyph unicode="&#xe918;" glyph-name="mp4" data-tags="mp" d="M320 362.667h42.667v-128h64v128h42.667v-192h64v213.333c0 23.467-19.2 42.667-42.667 42.667h-192c-23.467 0-42.667-19.2-42.667-42.667v-213.333h64v192zM576 170.667h64v64h85.333c23.467 0 42.667 19.2 42.667 42.667v106.667c0 23.467-19.2 42.667-42.667 42.667h-149.333v-256zM640 362.667h64v-64h-64v64zM810.667 832h-597.333c-46.933 0-85.333-38.4-85.333-85.333v-597.333c0-46.933 38.4-85.333 85.333-85.333h597.333c46.933 0 85.333 38.4 85.333 85.333v597.333c0 46.933-38.4 85.333-85.333 85.333zM810.667 149.333h-597.333v597.333h597.333v-597.333zM469.333 469.333h106.667c23.467 0 42.667 19.2 42.667 42.667v64c0 23.467-19.2 42.667-42.667 42.667h-85.333v42.667h128v64h-149.333c-23.467 0-42.667-19.2-42.667-42.667v-170.667c0-23.467 19.2-42.667 42.667-42.667zM490.667 576h64v-64h-64v64z" />
<glyph unicode="&#xe919;" glyph-name="k6" data-tags="k" d="M810.667 832h-597.333c-46.933 0-85.333-38.4-85.333-85.333v-597.333c0-46.933 38.4-85.333 85.333-85.333h597.333c46.933 0 85.333 38.4 85.333 85.333v597.333c0 46.933-38.4 85.333-85.333 85.333zM810.667 149.333h-597.333v597.333h597.333v-597.333zM330.667 320h74.667l62.293 200.96c8.107 27.307-12.373 55.040-40.96 55.040h-149.333v-64h112.213l-58.88-192zM618.667 416l74.667-96h74.667l-96 128 96 128h-74.667l-74.667-96v96h-64v-256h64z" />
<glyph unicode="&#xe91a;" glyph-name="k-plus6" data-tags="k-plus" d="M810.667 832h-597.333c-46.933 0-85.333-38.4-85.333-85.333v-597.333c0-46.933 38.4-85.333 85.333-85.333h597.333c46.933 0 85.333 38.4 85.333 85.333v597.333c0 46.933-38.4 85.333-85.333 85.333zM810.667 469.333h-64v64h-42.667v-64h-64v-42.667h64v-64h42.667v64h64v-277.333h-597.333v597.333h597.333v-277.333zM288 320h74.667l62.293 200.96c8.107 27.307-12.373 55.040-40.96 55.040h-149.333v-64h112.213l-58.88-192zM533.333 416l74.667-96h74.667l-96 128 96 128h-74.667l-74.667-96v96h-64v-256h64z" />
<glyph unicode="&#xe91b;" glyph-name="mp5" data-tags="mp" d="M320 362.667h42.667v-128h64v128h42.667v-192h64v213.333c0 23.467-19.2 42.667-42.667 42.667h-192c-23.467 0-42.667-19.2-42.667-42.667v-213.333h64v192zM576 170.667h64v64h85.333c23.467 0 42.667 19.2 42.667 42.667v106.667c0 23.467-19.2 42.667-42.667 42.667h-149.333v-256zM640 362.667h64v-64h-64v64zM810.667 832h-597.333c-46.933 0-85.333-38.4-85.333-85.333v-597.333c0-46.933 38.4-85.333 85.333-85.333h597.333c46.933 0 85.333 38.4 85.333 85.333v597.333c0 46.933-38.4 85.333-85.333 85.333zM810.667 149.333h-597.333v597.333h597.333v-597.333zM480 469.333h74.667l62.293 200.96c8.107 27.307-12.373 55.040-40.96 55.040h-149.333v-64h111.787l-58.453-192z" />
<glyph unicode="&#xe91c;" glyph-name="k7" data-tags="k" d="M320 320h106.667c23.467 0 42.667 19.2 42.667 42.667v170.667c0 23.467-19.2 42.667-42.667 42.667h-106.667c-23.467 0-42.667-19.2-42.667-42.667v-170.667c0-23.467 19.2-42.667 42.667-42.667zM341.333 533.333h64v-64h-64v64zM341.333 426.667h64v-64h-64v64zM810.667 832h-597.333c-46.933 0-85.333-38.4-85.333-85.333v-597.333c0-46.933 38.4-85.333 85.333-85.333h597.333c46.933 0 85.333 38.4 85.333 85.333v597.333c0 46.933-38.4 85.333-85.333 85.333zM810.667 149.333h-597.333v597.333h597.333v-597.333zM618.667 416l74.667-96h74.667l-96 128 96 128h-74.667l-74.667-96v96h-64v-256h64z" />
<glyph unicode="&#xe91d;" glyph-name="k-plus7" data-tags="k-plus" d="M298.667 320h85.333c23.467 0 42.667 19.2 42.667 42.667v170.667c0 23.467-19.2 42.667-42.667 42.667h-85.333c-23.467 0-42.667-19.2-42.667-42.667v-170.667c0-23.467 19.2-42.667 42.667-42.667zM320 533.333h42.667v-64h-42.667v64zM320 426.667h42.667v-64h-42.667v64zM810.667 832h-597.333c-46.933 0-85.333-38.4-85.333-85.333v-597.333c0-46.933 38.4-85.333 85.333-85.333h597.333c46.933 0 85.333 38.4 85.333 85.333v597.333c0 46.933-38.4 85.333-85.333 85.333zM810.667 469.333h-64v64h-42.667v-64h-64v-42.667h64v-64h42.667v64h64v-277.333h-597.333v597.333h597.333v-277.333zM533.333 416l74.667-96h74.667l-96 128 96 128h-74.667l-74.667-96v96h-64v-256h64z" />
<glyph unicode="&#xe91e;" glyph-name="mp6" data-tags="mp" d="M320 362.667h42.667v-128h64v128h42.667v-192h64v213.333c0 23.467-19.2 42.667-42.667 42.667h-192c-23.467 0-42.667-19.2-42.667-42.667v-213.333h64v192zM576 170.667h64v64h85.333c23.467 0 42.667 19.2 42.667 42.667v106.667c0 23.467-19.2 42.667-42.667 42.667h-149.333v-256zM640 362.667h64v-64h-64v64zM810.667 832h-597.333c-46.933 0-85.333-38.4-85.333-85.333v-597.333c0-46.933 38.4-85.333 85.333-85.333h597.333c46.933 0 85.333 38.4 85.333 85.333v597.333c0 46.933-38.4 85.333-85.333 85.333zM810.667 149.333h-597.333v597.333h597.333v-597.333zM469.333 469.333h106.667c23.467 0 42.667 19.2 42.667 42.667v170.667c0 23.467-19.2 42.667-42.667 42.667h-106.667c-23.467 0-42.667-19.2-42.667-42.667v-170.667c0-23.467 19.2-42.667 42.667-42.667zM490.667 682.667h64v-64h-64v64zM490.667 576h64v-64h-64v64z" />
<glyph unicode="&#xe91f;" glyph-name="k8" data-tags="k" d="M469.333 362.667v170.667c0 23.467-19.2 42.667-42.667 42.667h-106.667c-23.467 0-42.667-19.2-42.667-42.667v-64c0-23.467 19.2-42.667 42.667-42.667h85.333v-42.667h-128v-64h149.333c23.467 0 42.667 19.2 42.667 42.667zM405.333 469.333h-64v64h64v-64zM810.667 832h-597.333c-46.933 0-85.333-38.4-85.333-85.333v-597.333c0-46.933 38.4-85.333 85.333-85.333h597.333c46.933 0 85.333 38.4 85.333 85.333v597.333c0 46.933-38.4 85.333-85.333 85.333zM810.667 149.333h-597.333v597.333h597.333v-597.333zM618.667 416l74.667-96h74.667l-96 128 96 128h-74.667l-74.667-96v96h-64v-256h64z" />
<glyph unicode="&#xe920;" glyph-name="k-plus8" data-tags="k-plus" d="M426.667 362.667v170.667c0 23.467-19.2 42.667-42.667 42.667h-85.333c-23.467 0-42.667-19.2-42.667-42.667v-64c0-23.467 19.2-42.667 42.667-42.667h64v-42.667h-106.667v-64h128c23.467 0 42.667 19.2 42.667 42.667zM362.667 469.333h-42.667v64h42.667v-64zM810.667 832h-597.333c-46.933 0-85.333-38.4-85.333-85.333v-597.333c0-46.933 38.4-85.333 85.333-85.333h597.333c46.933 0 85.333 38.4 85.333 85.333v597.333c0 46.933-38.4 85.333-85.333 85.333zM810.667 469.333h-64v64h-42.667v-64h-64v-42.667h64v-64h42.667v64h64v-277.333h-597.333v597.333h597.333v-277.333zM533.333 416l74.667-96h74.667l-96 128 96 128h-74.667l-74.667-96v96h-64v-256h64z" />
<glyph unicode="&#xe921;" glyph-name="mp7" data-tags="mp" d="M320 362.667h42.667v-128h64v128h42.667v-192h64v213.333c0 23.467-19.2 42.667-42.667 42.667h-192c-23.467 0-42.667-19.2-42.667-42.667v-213.333h64v192zM576 170.667h64v64h85.333c23.467 0 42.667 19.2 42.667 42.667v106.667c0 23.467-19.2 42.667-42.667 42.667h-149.333v-256zM640 362.667h64v-64h-64v64zM810.667 832h-597.333c-46.933 0-85.333-38.4-85.333-85.333v-597.333c0-46.933 38.4-85.333 85.333-85.333h597.333c46.933 0 85.333 38.4 85.333 85.333v597.333c0 46.933-38.4 85.333-85.333 85.333zM810.667 149.333h-597.333v597.333h597.333v-597.333zM618.667 512v170.667c0 23.467-19.2 42.667-42.667 42.667h-106.667c-23.467 0-42.667-19.2-42.667-42.667v-64c0-23.467 19.2-42.667 42.667-42.667h85.333v-42.667h-128v-64h149.333c23.467 0 42.667 19.2 42.667 42.667zM554.667 618.667h-64v64h64v-64z" />
<glyph unicode="&#xe922;" glyph-name="k9" data-tags="k" d="M810.667 832h-597.333c-46.933 0-85.333-38.4-85.333-85.333v-597.333c0-46.933 38.4-85.333 85.333-85.333h597.333c46.933 0 85.333 38.4 85.333 85.333v597.333c0 46.933-38.4 85.333-85.333 85.333zM810.667 576v-426.667h-597.333v362.667h42.667v-192h64v256h-106.667v170.667h597.333v-170.667zM661.333 480v96h-64v-256h64v96l74.667-96h74.667l-96 128 96 128h-74.667zM405.333 320h106.667c23.467 0 42.667 19.2 42.667 42.667v170.667c0 23.467-19.2 42.667-42.667 42.667h-106.667c-23.467 0-42.667-19.2-42.667-42.667v-170.667c0-23.467 19.2-42.667 42.667-42.667zM426.667 512h64v-128h-64v128z" />
<glyph unicode="&#xe923;" glyph-name="mp8" data-tags="mp" d="M554.667 469.333h106.667c23.467 0 42.667 19.2 42.667 42.667v170.667c0 23.467-19.2 42.667-42.667 42.667h-106.667c-23.467 0-42.667-19.2-42.667-42.667v-170.667c0-23.467 19.2-42.667 42.667-42.667zM576 661.333h64v-128h-64v128zM320 362.667h42.667v-128h64v128h42.667v-192h64v213.333c0 23.467-19.2 42.667-42.667 42.667h-192c-23.467 0-42.667-19.2-42.667-42.667v-213.333h64v192zM362.667 469.333h64v256h-128v-64h64zM576 170.667h64v64h85.333c23.467 0 42.667 19.2 42.667 42.667v106.667c0 23.467-19.2 42.667-42.667 42.667h-149.333v-256zM640 362.667h64v-64h-64v64zM810.667 832h-597.333c-46.933 0-85.333-38.4-85.333-85.333v-597.333c0-46.933 38.4-85.333 85.333-85.333h597.333c46.933 0 85.333 38.4 85.333 85.333v597.333c0 46.933-38.4 85.333-85.333 85.333zM810.667 149.333h-597.333v597.333h597.333v-597.333z" />
<glyph unicode="&#xe924;" glyph-name="mp9" data-tags="mp" d="M320 362.667h42.667v-128h64v128h42.667v-192h64v213.333c0 23.467-19.2 42.667-42.667 42.667h-192c-23.467 0-42.667-19.2-42.667-42.667v-213.333h64v192zM576 170.667h64v64h85.333c23.467 0 42.667 19.2 42.667 42.667v106.667c0 23.467-19.2 42.667-42.667 42.667h-149.333v-256zM640 362.667h64v-64h-64v64zM810.667 832h-597.333c-46.933 0-85.333-38.4-85.333-85.333v-597.333c0-46.933 38.4-85.333 85.333-85.333h597.333c46.933 0 85.333 38.4 85.333 85.333v597.333c0 46.933-38.4 85.333-85.333 85.333zM810.667 149.333h-597.333v597.333h597.333v-597.333zM405.333 469.333h64v256h-128v-64h64zM618.667 469.333h64v256h-128v-64h64z" />
<glyph unicode="&#xe925;" glyph-name="mp10" data-tags="mp" d="M320 362.667h42.667v-128h64v128h42.667v-192h64v213.333c0 23.467-19.2 42.667-42.667 42.667h-192c-23.467 0-42.667-19.2-42.667-42.667v-213.333h64v192zM576 170.667h64v64h85.333c23.467 0 42.667 19.2 42.667 42.667v106.667c0 23.467-19.2 42.667-42.667 42.667h-149.333v-256zM640 362.667h64v-64h-64v64zM810.667 832h-597.333c-46.933 0-85.333-38.4-85.333-85.333v-597.333c0-46.933 38.4-85.333 85.333-85.333h597.333c46.933 0 85.333 38.4 85.333 85.333v597.333c0 46.933-38.4 85.333-85.333 85.333zM810.667 149.333h-597.333v597.333h597.333v-597.333zM362.667 469.333h64v256h-128v-64h64zM704 533.333h-128v42.667h85.333c23.467 0 42.667 19.2 42.667 42.667v64c0 23.467-19.2 42.667-42.667 42.667h-149.333v-64h128v-42.667h-85.333c-23.467 0-42.667-19.2-42.667-42.667v-106.667h192v64z" />
<glyph unicode="&#xe926;" glyph-name="mp11" data-tags="mp" d="M362.667 469.333h64v256h-128v-64h64zM704 512v170.667c0 23.467-19.2 42.667-42.667 42.667h-149.333v-64h128v-42.667h-85.333v-42.667h85.333v-42.667h-128v-64h149.333c23.467 0 42.667 19.2 42.667 42.667zM320 362.667h42.667v-128h64v128h42.667v-192h64v213.333c0 23.467-19.2 42.667-42.667 42.667h-192c-23.467 0-42.667-19.2-42.667-42.667v-213.333h64v192zM576 170.667h64v64h85.333c23.467 0 42.667 19.2 42.667 42.667v106.667c0 23.467-19.2 42.667-42.667 42.667h-149.333v-256zM640 362.667h64v-64h-64v64zM810.667 832h-597.333c-46.933 0-85.333-38.4-85.333-85.333v-597.333c0-46.933 38.4-85.333 85.333-85.333h597.333c46.933 0 85.333 38.4 85.333 85.333v597.333c0 46.933-38.4 85.333-85.333 85.333zM810.667 149.333h-597.333v597.333h597.333v-597.333z" />
<glyph unicode="&#xe927;" glyph-name="mp12" data-tags="mp" d="M320 362.667h42.667v-128h64v128h42.667v-192h64v213.333c0 23.467-19.2 42.667-42.667 42.667h-192c-23.467 0-42.667-19.2-42.667-42.667v-213.333h64v192zM576 426.667v-256h64v64h85.333c23.467 0 42.667 19.2 42.667 42.667v106.667c0 23.467-19.2 42.667-42.667 42.667h-149.333zM704 298.667h-64v64h64v-64zM810.667 832h-597.333c-46.933 0-85.333-38.4-85.333-85.333v-597.333c0-46.933 38.4-85.333 85.333-85.333h597.333c46.933 0 85.333 38.4 85.333 85.333v597.333c0 46.933-38.4 85.333-85.333 85.333zM810.667 149.333h-597.333v597.333h597.333v-597.333zM362.667 469.333h64v256h-128v-64h64zM640 469.333h64v64h42.667v64h-42.667v128h-64v-128h-64v128h-64v-192h128z" />
<glyph unicode="&#xe928;" glyph-name="mp13" data-tags="mp" d="M320 362.667h42.667v-128h64v128h42.667v-192h64v213.333c0 23.467-19.2 42.667-42.667 42.667h-192c-23.467 0-42.667-19.2-42.667-42.667v-213.333h64v192zM576 170.667h64v64h85.333c23.467 0 42.667 19.2 42.667 42.667v106.667c0 23.467-19.2 42.667-42.667 42.667h-149.333v-256zM640 362.667h64v-64h-64v64zM810.667 832h-597.333c-46.933 0-85.333-38.4-85.333-85.333v-597.333c0-46.933 38.4-85.333 85.333-85.333h597.333c46.933 0 85.333 38.4 85.333 85.333v597.333c0 46.933-38.4 85.333-85.333 85.333zM810.667 149.333h-597.333v597.333h597.333v-597.333zM362.667 469.333h64v256h-128v-64h64zM704 512v64c0 23.467-19.2 42.667-42.667 42.667h-85.333v42.667h128v64h-192v-149.333h128v-42.667h-128v-64h149.333c23.467 0 42.667 19.2 42.667 42.667z" />
<glyph unicode="&#xe929;" glyph-name="mp14" data-tags="mp" d="M320 362.667h42.667v-128h64v128h42.667v-192h64v213.333c0 23.467-19.2 42.667-42.667 42.667h-192c-23.467 0-42.667-19.2-42.667-42.667v-213.333h64v192zM576 170.667h64v64h85.333c23.467 0 42.667 19.2 42.667 42.667v106.667c0 23.467-19.2 42.667-42.667 42.667h-149.333v-256zM640 362.667h64v-64h-64v64zM810.667 832h-597.333c-46.933 0-85.333-38.4-85.333-85.333v-597.333c0-46.933 38.4-85.333 85.333-85.333h597.333c46.933 0 85.333 38.4 85.333 85.333v597.333c0 46.933-38.4 85.333-85.333 85.333zM810.667 149.333h-597.333v597.333h597.333v-597.333zM554.667 469.333h106.667c23.467 0 42.667 19.2 42.667 42.667v64c0 23.467-19.2 42.667-42.667 42.667h-85.333v42.667h128v64h-149.333c-23.467 0-42.667-19.2-42.667-42.667v-170.667c0-23.467 19.2-42.667 42.667-42.667zM576 576h64v-64h-64v64zM362.667 469.333h64v256h-128v-64h64z" />
<glyph unicode="&#xe92a;" glyph-name="mp15" data-tags="mp" d="M320 362.667h42.667v-128h64v128h42.667v-192h64v213.333c0 23.467-19.2 42.667-42.667 42.667h-192c-23.467 0-42.667-19.2-42.667-42.667v-213.333h64v192zM576 170.667h64v64h85.333c23.467 0 42.667 19.2 42.667 42.667v106.667c0 23.467-19.2 42.667-42.667 42.667h-149.333v-256zM640 362.667h64v-64h-64v64zM810.667 832h-597.333c-46.933 0-85.333-38.4-85.333-85.333v-597.333c0-46.933 38.4-85.333 85.333-85.333h597.333c46.933 0 85.333 38.4 85.333 85.333v597.333c0 46.933-38.4 85.333-85.333 85.333zM810.667 149.333h-597.333v597.333h597.333v-597.333zM362.667 469.333h64v256h-128v-64h64zM565.333 469.333h74.667l62.293 200.96c8.107 27.307-12.373 55.040-40.96 55.040h-149.333v-64h111.787l-58.453-192z" />
<glyph unicode="&#xe92b;" glyph-name="mp16" data-tags="mp" d="M320 362.667h42.667v-128h64v128h42.667v-192h64v213.333c0 23.467-19.2 42.667-42.667 42.667h-192c-23.467 0-42.667-19.2-42.667-42.667v-213.333h64v192zM576 170.667h64v64h85.333c23.467 0 42.667 19.2 42.667 42.667v106.667c0 23.467-19.2 42.667-42.667 42.667h-149.333v-256zM640 362.667h64v-64h-64v64zM810.667 832h-597.333c-46.933 0-85.333-38.4-85.333-85.333v-597.333c0-46.933 38.4-85.333 85.333-85.333h597.333c46.933 0 85.333 38.4 85.333 85.333v597.333c0 46.933-38.4 85.333-85.333 85.333zM810.667 149.333h-597.333v597.333h597.333v-597.333zM362.667 469.333h64v256h-128v-64h64zM554.667 469.333h106.667c23.467 0 42.667 19.2 42.667 42.667v170.667c0 23.467-19.2 42.667-42.667 42.667h-106.667c-23.467 0-42.667-19.2-42.667-42.667v-170.667c0-23.467 19.2-42.667 42.667-42.667zM576 682.667h64v-64h-64v64zM576 576h64v-64h-64v64z" />
<glyph unicode="&#xe92c;" glyph-name="up-rating" data-tags="up-rating" d="M362.667 320h64v256h-128v-64h64zM810.667 832h-597.333c-46.933 0-85.333-38.4-85.333-85.333v-597.333c0-46.933 38.4-85.333 85.333-85.333h597.333c46.933 0 85.333 38.4 85.333 85.333v597.333c0 46.933-38.4 85.333-85.333 85.333zM810.667 149.333h-597.333v597.333h597.333v-597.333zM533.333 320h106.667c23.467 0 42.667 19.2 42.667 42.667v170.667c0 23.467-19.2 42.667-42.667 42.667h-106.667c-23.467 0-42.667-19.2-42.667-42.667v-170.667c0-23.467 19.2-42.667 42.667-42.667zM554.667 533.333h64v-64h-64v64zM554.667 426.667h64v-64h-64v64z" />
<glyph unicode="&#xe92d;" glyph-name="mp17" data-tags="mp" d="M320 362.667h42.667v-128h64v128h42.667v-192h64v213.333c0 23.467-19.2 42.667-42.667 42.667h-192c-23.467 0-42.667-19.2-42.667-42.667v-213.333h64v192zM576 170.667h64v64h85.333c23.467 0 42.667 19.2 42.667 42.667v106.667c0 23.467-19.2 42.667-42.667 42.667h-149.333v-256zM640 362.667h64v-64h-64v64zM810.667 832h-597.333c-46.933 0-85.333-38.4-85.333-85.333v-597.333c0-46.933 38.4-85.333 85.333-85.333h597.333c46.933 0 85.333 38.4 85.333 85.333v597.333c0 46.933-38.4 85.333-85.333 85.333zM810.667 149.333h-597.333v597.333h597.333v-597.333zM362.667 469.333h64v256h-128v-64h64zM704 512v170.667c0 23.467-19.2 42.667-42.667 42.667h-106.667c-23.467 0-42.667-19.2-42.667-42.667v-64c0-23.467 19.2-42.667 42.667-42.667h85.333v-42.667h-128v-64h149.333c23.467 0 42.667 19.2 42.667 42.667zM640 618.667h-64v64h64v-64z" />
<glyph unicode="&#xe92e;" glyph-name="mp18" data-tags="mp" d="M320 362.667h42.667v-128h64v128h42.667v-192h64v213.333c0 23.467-19.2 42.667-42.667 42.667h-192c-23.467 0-42.667-19.2-42.667-42.667v-213.333h64v192zM576 426.667v-256h64v64h85.333c23.467 0 42.667 19.2 42.667 42.667v106.667c0 23.467-19.2 42.667-42.667 42.667h-149.333zM704 298.667h-64v64h64v-64zM810.667 832h-597.333c-46.933 0-85.333-38.4-85.333-85.333v-597.333c0-46.933 38.4-85.333 85.333-85.333h597.333c46.933 0 85.333 38.4 85.333 85.333v597.333c0 46.933-38.4 85.333-85.333 85.333zM810.667 149.333h-597.333v597.333h597.333v-597.333zM597.333 469.333h106.667c23.467 0 42.667 19.2 42.667 42.667v170.667c0 23.467-19.2 42.667-42.667 42.667h-106.667c-23.467 0-42.667-19.2-42.667-42.667v-170.667c0-23.467 19.2-42.667 42.667-42.667zM618.667 661.333h64v-128h-64v128zM469.333 533.333h-128v42.667h85.333c23.467 0 42.667 19.2 42.667 42.667v64c0 23.467-19.2 42.667-42.667 42.667h-149.333v-64h128v-42.667h-85.333c-23.467 0-42.667-19.2-42.667-42.667v-106.667h192v64z" />
<glyph unicode="&#xe92f;" glyph-name="mp19" data-tags="mp" d="M810.667 832h-597.333c-46.933 0-85.333-38.4-85.333-85.333v-597.333c0-46.933 38.4-85.333 85.333-85.333h597.333c46.933 0 85.333 38.4 85.333 85.333v597.333c0 46.933-38.4 85.333-85.333 85.333zM810.667 149.333h-597.333v597.333h597.333v-597.333zM618.667 469.333h64v256h-128v-64h64zM512 533.333h-128v42.667h85.333c23.467 0 42.667 19.2 42.667 42.667v64c0 23.467-19.2 42.667-42.667 42.667h-149.333v-64h128v-42.667h-85.333c-23.467 0-42.667-19.2-42.667-42.667v-106.667h192v64zM320 362.667h42.667v-128h64v128h42.667v-192h64v213.333c0 23.467-19.2 42.667-42.667 42.667h-192c-23.467 0-42.667-19.2-42.667-42.667v-213.333h64v192zM640 234.667h85.333c23.467 0 42.667 19.2 42.667 42.667v106.667c0 23.467-19.2 42.667-42.667 42.667h-149.333v-256h64v64zM640 362.667h64v-64h-64v64z" />
<glyph unicode="&#xe930;" glyph-name="mp20" data-tags="mp" d="M320 362.667h42.667v-128h64v128h42.667v-192h64v213.333c0 23.467-19.2 42.667-42.667 42.667h-192c-23.467 0-42.667-19.2-42.667-42.667v-213.333h64v192zM576 426.667v-256h64v64h85.333c23.467 0 42.667 19.2 42.667 42.667v106.667c0 23.467-19.2 42.667-42.667 42.667h-149.333zM704 298.667h-64v64h64v-64zM810.667 832h-597.333c-46.933 0-85.333-38.4-85.333-85.333v-597.333c0-46.933 38.4-85.333 85.333-85.333h597.333c46.933 0 85.333 38.4 85.333 85.333v597.333c0 46.933-38.4 85.333-85.333 85.333zM810.667 149.333h-597.333v597.333h597.333v-597.333zM469.333 533.333h-128v42.667h85.333c23.467 0 42.667 19.2 42.667 42.667v64c0 23.467-19.2 42.667-42.667 42.667h-149.333v-64h128v-42.667h-85.333c-23.467 0-42.667-19.2-42.667-42.667v-106.667h192v64zM746.667 533.333h-128v42.667h85.333c23.467 0 42.667 19.2 42.667 42.667v64c0 23.467-19.2 42.667-42.667 42.667h-149.333v-64h128v-42.667h-85.333c-23.467 0-42.667-19.2-42.667-42.667v-106.667h192v64z" />
<glyph unicode="&#xe931;" glyph-name="mp21" data-tags="mp" d="M320 362.667h42.667v-128h64v128h42.667v-192h64v213.333c0 23.467-19.2 42.667-42.667 42.667h-192c-23.467 0-42.667-19.2-42.667-42.667v-213.333h64v192zM576 426.667v-256h64v64h85.333c23.467 0 42.667 19.2 42.667 42.667v106.667c0 23.467-19.2 42.667-42.667 42.667h-149.333zM704 298.667h-64v64h64v-64zM810.667 832h-597.333c-46.933 0-85.333-38.4-85.333-85.333v-597.333c0-46.933 38.4-85.333 85.333-85.333h597.333c46.933 0 85.333 38.4 85.333 85.333v597.333c0 46.933-38.4 85.333-85.333 85.333zM810.667 149.333h-597.333v597.333h597.333v-597.333zM469.333 533.333h-128v42.667h85.333c23.467 0 42.667 19.2 42.667 42.667v64c0 23.467-19.2 42.667-42.667 42.667h-149.333v-64h128v-42.667h-85.333c-23.467 0-42.667-19.2-42.667-42.667v-106.667h192v64zM746.667 512v170.667c0 23.467-19.2 42.667-42.667 42.667h-149.333v-64h128v-42.667h-85.333v-42.667h85.333v-42.667h-128v-64h149.333c23.467 0 42.667 19.2 42.667 42.667z" />
<glyph unicode="&#xe932;" glyph-name="mp22" data-tags="mp" d="M320 362.667h42.667v-128h64v128h42.667v-192h64v213.333c0 23.467-19.2 42.667-42.667 42.667h-192c-23.467 0-42.667-19.2-42.667-42.667v-213.333h64v192zM725.333 426.667h-149.333v-256h64v64h85.333c23.467 0 42.667 19.2 42.667 42.667v106.667c0 23.467-19.2 42.667-42.667 42.667zM704 298.667h-64v64h64v-64zM810.667 832h-597.333c-46.933 0-85.333-38.4-85.333-85.333v-597.333c0-46.933 38.4-85.333 85.333-85.333h597.333c46.933 0 85.333 38.4 85.333 85.333v597.333c0 46.933-38.4 85.333-85.333 85.333zM810.667 149.333h-597.333v597.333h597.333v-597.333zM469.333 533.333h-128v42.667h85.333c23.467 0 42.667 19.2 42.667 42.667v64c0 23.467-19.2 42.667-42.667 42.667h-149.333v-64h128v-42.667h-85.333c-23.467 0-42.667-19.2-42.667-42.667v-106.667h192v64zM682.667 469.333h64v64h42.667v64h-42.667v128h-64v-128h-64v128h-64v-192h128z" />
<glyph unicode="&#xe933;" glyph-name="fps" data-tags="fps" d="M85.333 746.667v-128h256v-106.667h-213.333v-128h213.333v-106.667h-256v-128h256c70.827 0 128 57.173 128 128v81.067c0 49.485-40.115 89.6-89.6 89.6v0c49.485 0 89.6 40.115 89.6 89.6v0 81.067c0 70.827-57.173 128-128 128h-256zM810.667 618.667v-341.333h-170.667v341.333h170.667zM810.667 746.667h-170.667c-70.827 0-128-57.173-128-128v-341.333c0-70.827 57.173-128 128-128h170.667c70.827 0 128 57.173 128 128v341.333c0 70.827-57.173 128-128 128z" />
<glyph unicode="&#xe934;" glyph-name="fps-select" data-tags="fps-select" d="M170.667 789.333v-85.333h213.333v-85.333h-170.667v-85.333h170.667v-85.333h-213.333v-85.333h213.333c46.933 0 85.333 38.4 85.333 85.333v64c0 35.413-7.253 64-42.667 64 35.413 0 42.667 28.587 42.667 64v64c0 46.933-38.4 85.333-85.333 85.333h-213.333zM768 789.333c46.933 0 85.333-38.4 85.333-85.333v-256c0-46.933-38.4-85.333-85.333-85.333h-128c-46.933 0-85.333 38.4-85.333 85.333v256c0 46.933 38.4 85.333 85.333 85.333h128zM768 704h-128v-256h128v256zM213.333 21.333h-85.333v213.333h85.333v-213.333zM384 21.333h-85.333v213.333h85.333v-213.333zM554.667 21.333h-85.333v213.333h85.333v-213.333zM896 21.333h-256v213.333h256v-213.333z" />
<glyph unicode="&#xe935;" glyph-name="fps1" data-tags="fps" d="M810.667 618.667v-341.333h-170.667v341.333h170.667zM810.667 746.667h-170.667c-70.827 0-128-57.173-128-128v-341.333c0-70.827 57.173-128 128-128h170.667c70.827 0 128 57.173 128 128v341.333c0 70.827-57.173 128-128 128zM426.667 618.667v128h-213.333c-70.827 0-128-57.173-128-128v-341.333c0-70.827 57.173-128 128-128h128c70.827 0 128 57.173 128 128v128c0 70.827-57.173 128-128 128h-128v85.333h213.333zM341.333 405.333v-128h-128v128h128z" />
<glyph unicode="&#xe936;" glyph-name="fps-select1" data-tags="fps-select" d="M768 704v-256h-128v256h128zM768 789.333h-128c-46.933 0-85.333-38.4-85.333-85.333v-256c0-46.933 38.4-85.333 85.333-85.333h128c46.933 0 85.333 38.4 85.333 85.333v256c0 46.933-38.4 85.333-85.333 85.333zM469.333 704v85.333h-213.333c-46.933 0-85.333-38.4-85.333-85.333v-256c0-46.933 38.4-85.333 85.333-85.333h128c46.933 0 85.333 38.4 85.333 85.333v85.333c0 46.933-38.4 85.333-85.333 85.333h-128v85.333h213.333zM384 533.333v-85.333h-128v85.333h128zM213.333 21.333h-85.333v213.333h85.333v-213.333zM384 21.333h-85.333v213.333h85.333v-213.333zM554.667 21.333h-85.333v213.333h85.333v-213.333zM896 21.333h-256v213.333h256v-213.333z" />
<glyph unicode="&#xe937;" glyph-name="123" data-tags="123" d="M298.667 320h-64v192h-64v64h128v-256zM576 384h-128v42.667h85.333c23.467 0 42.667 19.2 42.667 42.667v64c0 23.467-19.2 42.667-42.667 42.667h-149.333v-64h128v-42.667h-85.333c-23.467 0-42.667-19.2-42.667-42.667v-106.667h192v64zM832 362.667v170.667c0 23.467-19.2 42.667-42.667 42.667h-149.333v-64h128v-42.667h-85.333v-42.667h85.333v-42.667h-128v-64h149.333c23.467 0 42.667 19.2 42.667 42.667z" />
<glyph unicode="&#xe938;" glyph-name="360" data-tags="360" d="M512 661.333c-235.52 0-426.667-95.573-426.667-213.333 0-95.573 125.44-176.213 298.667-203.52v-137.813l170.667 170.667-170.667 170.667v-116.48c-134.4 23.893-213.333 81.067-213.333 116.48 0 45.227 129.707 128 341.333 128s341.333-82.773 341.333-128c0-31.147-62.293-80.64-170.667-107.947v-87.467c150.613 32.853 256 107.947 256 195.413 0 117.76-191.147 213.333-426.667 213.333z" />
<glyph unicode="&#xe939;" glyph-name="abc" data-tags="abc" d="M896 490.667h-64v21.333h-85.333v-128h85.333v21.333h64v-42.667c0-23.467-19.2-42.667-42.667-42.667h-128c-23.467 0-42.667 19.2-42.667 42.667v170.667c0 23.467 19.2 42.667 42.667 42.667h128c23.467 0 42.667-19.2 42.667-42.667v-42.667zM341.333 533.333v-213.333h-64v64h-85.333v-64h-64v213.333c0 23.467 19.2 42.667 42.667 42.667h128c23.467 0 42.667-19.2 42.667-42.667zM277.333 512h-85.333v-64h85.333v64zM576 448c23.467 0 42.667-19.2 42.667-42.667v-42.667c0-23.467-19.2-42.667-42.667-42.667h-170.667v256h170.667c23.467 0 42.667-19.2 42.667-42.667v-42.667c0-23.467-19.2-42.667-42.667-42.667zM469.333 512v-32h85.333v32h-85.333zM554.667 416h-85.333v-32h85.333v32z" />
<glyph unicode="&#xe93a;" glyph-name="access-alarm" data-tags="access-alarm" d="M938.667 715.947l-196.267 164.693-55.040-65.28 196.267-164.693 55.040 65.28zM336.213 815.36l-54.613 65.28-196.267-164.267 55.040-65.28 195.84 164.267zM533.333 618.667h-64v-256l202.667-121.6 32 52.48-170.667 101.12v224zM512 789.333c-212.053 0-384-171.947-384-384s171.52-384 384-384c212.077 0 384 171.923 384 384s-171.923 384-384 384v0zM512 106.667c-165.12 0-298.667 133.547-298.667 298.667s133.547 298.667 298.667 298.667 298.667-133.547 298.667-298.667-133.547-298.667-298.667-298.667z" />
<glyph unicode="&#xe93b;" glyph-name="access-alarms" data-tags="access-alarms" d="M938.667 716.8l-196.267 166.4-55.467-64 196.267-166.4 55.467 64zM337.067 814.933l-55.467 64-196.267-162.133 55.467-64 196.267 162.133zM533.333 618.667h-64v-256l200.533-123.733 34.133 51.2-170.667 102.4v226.133zM512 789.333c-213.333 0-384-170.667-384-384s170.667-384 384-384 384 170.667 384 384-170.667 384-384 384zM512 106.667c-166.4 0-298.667 132.267-298.667 298.667s132.267 298.667 298.667 298.667 298.667-132.267 298.667-298.667-132.267-298.667-298.667-298.667z" />
<glyph unicode="&#xe93c;" glyph-name="accessibility" data-tags="accessibility" d="M512 874.667c46.933 0 85.333-38.4 85.333-85.333s-38.4-85.333-85.333-85.333-85.333 38.4-85.333 85.333 38.4 85.333 85.333 85.333zM896 576h-256v-554.667h-85.333v256h-85.333v-256h-85.333v554.667h-256v85.333h768v-85.333z" />
<glyph unicode="&#xe93d;" glyph-name="accessibility-new" data-tags="accessibility-new" d="M874.667 704c-111.36-29.867-241.92-42.667-362.667-42.667s-251.307 12.8-362.667 42.667l-21.333-85.333c79.36-21.333 170.667-35.413 256-42.667v-554.667h85.333v256h85.333v-256h85.333v554.667c85.333 7.253 176.64 21.333 256 42.667l-21.333 85.333zM512 704c46.933 0 85.333 38.4 85.333 85.333s-38.4 85.333-85.333 85.333-85.333-38.4-85.333-85.333 38.4-85.333 85.333-85.333z" />
<glyph unicode="&#xe93e;" glyph-name="accessible" data-tags="accessible" d="M597.333 789.333c0-47.128-38.205-85.333-85.333-85.333s-85.333 38.205-85.333 85.333c0 47.128 38.205 85.333 85.333 85.333s85.333-38.205 85.333-85.333zM810.667 405.333v85.333c-65.707-0.853-131.84 32-173.653 78.080l-55.040 61.013c-7.253 8.107-16.213 14.507-26.027 19.2-0.427 0-0.427 0.427-0.853 0.427h-0.427c-14.933 8.533-32 12.8-50.773 11.093-44.8-3.84-77.227-43.52-77.227-88.32v-252.16c0-46.933 38.4-85.333 85.333-85.333h213.333v-213.333h85.333v234.667c0 46.933-38.4 85.333-85.333 85.333h-128v147.2c55.040-45.653 138.667-82.773 213.333-83.2zM426.667 106.667c-70.827 0-128 57.173-128 128 0 55.893 35.84 102.827 85.333 120.747v88.32c-98.045-20.565-170.612-106.314-170.612-209.012 0-117.821 95.513-213.333 213.333-213.333 102.698 0 188.447 72.567 208.767 169.222l0.244 1.39h-88.32c-17.493-49.493-64.853-85.333-120.747-85.333z" />
<glyph unicode="&#xe93f;" glyph-name="accessible-forward" data-tags="accessible-forward" d="M853.333 766.293c0-47.128-38.205-85.333-85.333-85.333s-85.333 38.205-85.333 85.333c0 47.128 38.205 85.333 85.333 85.333s85.333-38.205 85.333-85.333zM640 234.667h-85.333c0-70.4-57.6-128-128-128s-128 57.6-128 128 57.6 128 128 128v85.333c-117.76 0-213.333-95.573-213.333-213.333s95.573-213.333 213.333-213.333 213.333 95.573 213.333 213.333zM768 384h-79.36l71.253 156.587c26.027 56.747-15.787 120.747-78.933 120.747h-221.867c-34.56 0-65.707-20.053-79.787-51.2l-28.587-76.8 81.92-22.613 27.733 65.28h94.293l-78.080-174.933c-25.6-56.747 16.64-123.733 78.933-123.733h212.48v-213.333h85.333v234.667c0 46.933-38.4 85.333-85.333 85.333z" />
<glyph unicode="&#xe940;" glyph-name="access-time" data-tags="access-time" d="M511.573 874.667c-235.52 0-426.24-191.147-426.24-426.667s190.72-426.667 426.24-426.667c235.947 0 427.093 191.147 427.093 426.667s-191.147 426.667-427.093 426.667zM512 106.667c-188.587 0-341.333 152.747-341.333 341.333s152.747 341.333 341.333 341.333 341.333-152.747 341.333-341.333-152.747-341.333-341.333-341.333zM533.333 661.333h-64v-256l224-134.4 32 52.48-192 113.92z" />
<glyph unicode="&#xe941;" glyph-name="access-time-filled" data-tags="access-time-filled" d="M511.573 874.667c-235.52 0-426.24-191.147-426.24-426.667s190.72-426.667 426.24-426.667c235.947 0 427.093 191.147 427.093 426.667s-191.147 426.667-427.093 426.667zM652.373 247.040l-183.040 183.467v230.827h85.333v-195.84l158.293-158.293-60.587-60.16z" />
<glyph unicode="&#xe942;" glyph-name="account-balance" data-tags="account-balance" d="M277.333 533.333h-85.333v-298.667h85.333v298.667zM533.333 533.333h-85.333v-298.667h85.333v298.667zM896 149.333h-810.667v-85.333h810.667v85.333zM789.333 533.333h-85.333v-298.667h85.333v298.667zM490.667 820.907l222.293-116.907h-444.587l222.293 116.907zM490.667 917.333l-405.333-213.333v-85.333h810.667v85.333l-405.333 213.333z" />
<glyph unicode="&#xe943;" glyph-name="account-balance-wallet" data-tags="account-balance-wallet" d="M896 649.387v97.28c0 46.933-38.4 85.333-85.333 85.333h-597.333c-47.128 0-85.333-38.205-85.333-85.333v0-597.333c0-47.128 38.205-85.333 85.333-85.333v0h597.333c46.933 0 85.333 38.4 85.333 85.333v97.28c25.542 14.943 42.472 42.166 42.667 73.359v256.028c-0.194 31.22-17.125 58.443-42.264 73.169l-0.403 0.218zM853.333 576v-256h-298.667v256h298.667zM213.333 149.333v597.333h597.333v-85.333h-256c-46.933 0-85.333-38.4-85.333-85.333v-256c0-46.933 38.4-85.333 85.333-85.333h256v-85.333h-597.333zM746.667 448c0-35.346-28.654-64-64-64s-64 28.654-64 64c0 35.346 28.654 64 64 64s64-28.654 64-64z" />
<glyph unicode="&#xe944;" glyph-name="account-box" data-tags="account-box" d="M810.667 832h-597.333c-46.933 0-85.333-38.4-85.333-85.333v-597.333c0-46.933 38.4-85.333 85.333-85.333h597.333c46.933 0 85.333 38.4 85.333 85.333v597.333c0 46.933-38.4 85.333-85.333 85.333zM725.333 149.333h-426.667v10.24c60.587 48.64 134.827 75.093 213.333 75.093s152.747-26.453 213.333-75.093v-10.24zM810.667 197.973c-76.8 75.52-182.187 122.027-298.667 122.027s-221.867-46.507-298.667-122.027v548.693h597.333v-548.693zM512 405.333c82.347 0 149.333 66.987 149.333 149.333s-66.987 149.333-149.333 149.333-149.333-66.987-149.333-149.333 66.987-149.333 149.333-149.333zM512 618.667c35.413 0 64-28.587 64-64s-28.587-64-64-64-64 28.587-64 64 28.587 64 64 64z" />
<glyph unicode="&#xe945;" glyph-name="account-circle" data-tags="account-circle" d="M512 874.667c-235.52 0-426.667-191.147-426.667-426.667s191.147-426.667 426.667-426.667 426.667 191.147 426.667 426.667-191.147 426.667-426.667 426.667zM313.6 170.667c55.893 40.107 124.16 64 198.4 64s142.507-23.893 198.4-64c-55.893-40.107-124.16-64-198.4-64s-142.507 23.893-198.4 64zM773.973 229.547c-71.392 56.421-162.702 90.504-261.973 90.504s-190.581-34.083-262.867-91.185l0.894 0.681c-49.362 58.559-79.36 134.849-79.36 218.145 0 0.108 0 0.217 0 0.325v-0.017c0 188.587 152.747 341.333 341.333 341.333s341.333-152.747 341.333-341.333c0-83.2-29.867-159.147-79.36-218.453zM512 704c-82.347 0-149.333-66.987-149.333-149.333s66.987-149.333 149.333-149.333 149.333 66.987 149.333 149.333-66.987 149.333-149.333 149.333zM512 490.667c-35.413 0-64 28.587-64 64s28.587 64 64 64 64-28.587 64-64-28.587-64-64-64z" />
<glyph unicode="&#xe946;" glyph-name="account-tree" data-tags="account-tree" d="M938.667 490.667v341.333h-298.667v-128h-256v128h-298.667v-341.333h298.667v128h85.333v-426.667h170.667v-128h298.667v341.333h-298.667v-128h-85.333v341.333h85.333v-128h298.667zM298.667 576h-128v170.667h128v-170.667zM725.333 320h128v-170.667h-128v170.667zM725.333 746.667h128v-170.667h-128v170.667z" />
<glyph unicode="&#xe947;" glyph-name="ac-unit" data-tags="ac-unit" d="M938.667 490.667h-177.92l138.24 138.24-60.16 60.587-198.827-198.827h-85.333v85.333l198.827 198.827-60.587 60.16-138.24-138.24v177.92h-85.333v-177.92l-138.24 138.24-60.587-60.16 198.827-198.827v-85.333h-85.333l-198.827 198.827-60.16-60.587 138.24-138.24h-177.92v-85.333h177.92l-138.24-138.24 60.16-60.587 198.827 198.827h85.333v-85.333l-198.827-198.827 60.587-60.16 138.24 138.24v-177.92h85.333v177.92l138.24-138.24 60.587 60.16-198.827 198.827v85.333h85.333l198.827-198.827 60.16 60.587-138.24 138.24h177.92v85.333z" />
<glyph unicode="&#xe948;" glyph-name="adb" data-tags="adb" d="M213.333 277.333c0-165.12 133.547-298.667 298.667-298.667s298.667 133.547 298.667 298.667v170.667h-597.333v-170.667zM687.787 773.547l89.6 89.6-34.987 35.413-98.133-98.56c-40.107 20.053-84.48 32-132.267 32s-92.16-11.947-131.84-32l-98.56 98.56-34.987-35.413 89.6-89.6c-74.24-54.187-122.88-141.227-122.88-240.213v-42.667h597.333v42.667c0 98.987-48.64 186.027-122.88 240.213zM384 576c-23.467 0-42.667 19.2-42.667 42.667s19.2 42.667 42.667 42.667 42.667-19.2 42.667-42.667-19.2-42.667-42.667-42.667zM640 576c-23.467 0-42.667 19.2-42.667 42.667s19.2 42.667 42.667 42.667 42.667-19.2 42.667-42.667-19.2-42.667-42.667-42.667z" />
<glyph unicode="&#xe949;" glyph-name="add" data-tags="add" d="M810.667 405.333h-256v-256h-85.333v256h-256v85.333h256v256h85.333v-256h256v-85.333z" />
<glyph unicode="&#xe94a;" glyph-name="add-alarm" data-tags="add-alarm" d="M336.213 815.36l-54.613 65.28-196.267-164.267 55.040-65.28 195.84 164.267zM938.667 715.947l-196.267 164.693-55.040-65.28 196.267-164.693 55.040 65.28zM512 789.333c-212.053 0-384-171.947-384-384s171.52-384 384-384c212.077 0 384 171.923 384 384s-171.923 384-384 384v0zM512 106.667c-165.12 0-298.667 133.547-298.667 298.667s133.547 298.667 298.667 298.667 298.667-133.547 298.667-298.667-133.547-298.667-298.667-298.667zM554.667 576h-85.333v-128h-128v-85.333h128v-128h85.333v128h128v85.333h-128v128z" />
<glyph unicode="&#xe94b;" glyph-name="add-alert" data-tags="add-alert" d="M427.093 63.573c0-46.933 37.973-84.907 84.907-84.907s84.907 37.973 84.907 84.907h-169.813zM512 704c117.76 0 213.333-95.573 213.333-213.333v-298.667h-426.667v298.667c0 117.76 95.573 213.333 213.333 213.333zM512 896c-35.413 0-64-28.587-64-64v-49.92c-133.973-29.013-234.667-148.48-234.667-291.413v-256l-85.333-85.333v-42.667h768v42.667l-85.333 85.333v256c0 142.933-100.693 262.4-234.667 291.413v49.92c0 35.413-28.587 64-64 64zM554.667 618.667h-85.333v-128h-128v-85.333h128v-128h85.333v128h128v85.333h-128z" />
<glyph unicode="&#xe94c;" glyph-name="add-a-photo" data-tags="add-a-photo" d="M896 704h-135.253l-78.080 85.333h-256v-85.333h218.453l78.080-85.333h172.8v-512h-682.667v384h-85.333v-384c0-46.933 38.4-85.333 85.333-85.333h682.667c46.933 0 85.333 38.4 85.333 85.333v512c0 46.933-38.4 85.333-85.333 85.333zM341.333 362.667c0-117.76 95.573-213.333 213.333-213.333s213.333 95.573 213.333 213.333-95.573 213.333-213.333 213.333-213.333-95.573-213.333-213.333zM554.667 490.667c70.4 0 128-57.6 128-128s-57.6-128-128-128-128 57.6-128 128 57.6 128 128 128zM213.333 704h128v85.333h-128v128h-85.333v-128h-128v-85.333h128v-128h85.333z" />
<glyph unicode="&#xe94d;" glyph-name="add-box" data-tags="add-box" d="M810.667 832h-597.333c-47.128 0-85.333-38.205-85.333-85.333v0-597.333c0-47.128 38.205-85.333 85.333-85.333v0h597.333c46.933 0 85.333 38.4 85.333 85.333v597.333c0 46.933-38.4 85.333-85.333 85.333zM810.667 149.333h-597.333v597.333h597.333v-597.333zM469.333 234.667h85.333v170.667h170.667v85.333h-170.667v170.667h-85.333v-170.667h-170.667v-85.333h170.667z" />
<glyph unicode="&#xe94e;" glyph-name="add-business" data-tags="add-business" d="M85.333 789.333h640v-85.333h-640zM640 234.667h85.333v128h42.667v85.333l-42.667 213.333h-640l-42.667-213.333v-85.333h42.667v-256h384v256h170.667v-128zM384 192h-213.333v170.667h213.333v-170.667zM129.707 448l25.6 128h500.053l25.6-128h-551.253zM981.333 192h-128v128h-85.333v-128h-128v-85.333h128v-128h85.333v128h128z" />
<glyph unicode="&#xe94f;" glyph-name="add-card" data-tags="add-card" d="M853.333 789.333h-682.667c-47.36 0-84.907-37.973-84.907-85.333l-0.427-512c0-47.36 37.973-85.333 85.333-85.333h426.667v85.333h-426.667v256h768v256c0 47.36-37.973 85.333-85.333 85.333zM853.333 618.667h-682.667v85.333h682.667v-85.333zM1024 234.667v-85.333h-128v-128h-85.333v128h-128v85.333h128v128h85.333v-128h128z" />
<glyph unicode="&#xe950;" glyph-name="addchart" data-tags="addchart" d="M938.667 746.667v-85.333h-128v-128h-85.333v128h-128v85.333h128v128h85.333v-128h128zM810.667 149.333h-597.333v597.333h256v85.333h-256c-46.933 0-85.333-38.4-85.333-85.333v-597.333c0-46.933 38.4-85.333 85.333-85.333h597.333c46.933 0 85.333 38.4 85.333 85.333v256h-85.333v-256zM640 405.333v-170.667h85.333v170.667h-85.333zM469.333 234.667h85.333v341.333h-85.333v-341.333zM384 234.667v256h-85.333v-256h85.333z" />
<glyph unicode="&#xe951;" glyph-name="add-chart" data-tags="add-chart" d="M810.667 149.333h-597.333v597.333h384v85.333h-384c-46.933 0-85.333-38.4-85.333-85.333v-597.333c0-46.933 38.4-85.333 85.333-85.333h597.333c46.933 0 85.333 38.4 85.333 85.333v384h-85.333v-384zM640 405.333h85.333v-170.667h-85.333zM298.667 533.333h85.333v-298.667h-85.333zM469.333 661.333h85.333v-426.667h-85.333zM810.667 746.667v85.333h-85.333v-85.333h-85.333v-85.333h85.333v-85.333h85.333v85.333h85.333v85.333z" />
<glyph unicode="&#xe952;" glyph-name="add-circle" data-tags="add-circle" d="M512 874.667c-235.52 0-426.667-191.147-426.667-426.667s191.147-426.667 426.667-426.667 426.667 191.147 426.667 426.667-191.147 426.667-426.667 426.667zM725.333 405.333h-170.667v-170.667h-85.333v170.667h-170.667v85.333h170.667v170.667h85.333v-170.667h170.667v-85.333z" />
<glyph unicode="&#xe953;" glyph-name="add-circle-outline" data-tags="add-circle-outline" d="M554.667 661.333h-85.333v-170.667h-170.667v-85.333h170.667v-170.667h85.333v170.667h170.667v85.333h-170.667v170.667zM512 874.667c-235.52 0-426.667-191.147-426.667-426.667s191.147-426.667 426.667-426.667 426.667 191.147 426.667 426.667-191.147 426.667-426.667 426.667zM512 106.667c-188.16 0-341.333 153.173-341.333 341.333s153.173 341.333 341.333 341.333 341.333-153.173 341.333-341.333-153.173-341.333-341.333-341.333z" />
<glyph unicode="&#xe954;" glyph-name="add-comment" data-tags="add-comment" d="M938.667 789.333c0 46.933-38.4 85.333-85.333 85.333h-682.667c-46.933 0-85.333-38.4-85.333-85.333v-512c0-46.933 38.4-85.333 85.333-85.333h597.333l170.667-170.667v768zM853.333 227.413l-49.92 49.92h-632.747v512h682.667v-561.92zM554.667 746.667h-85.333v-170.667h-170.667v-85.333h170.667v-170.667h85.333v170.667h170.667v85.333h-170.667z" />
<glyph unicode="&#xe955;" glyph-name="add-home" data-tags="add-home" d="M512 725.333l256-192v-42.667c29.867 0 58.453-4.267 85.333-12.373v97.707l-341.333 256-341.333-256v-512h327.68c-12.8 26.453-21.333 55.040-25.6 85.333h-216.747v384l256 192zM768 405.333c-117.76 0-213.333-95.573-213.333-213.333s95.573-213.333 213.333-213.333 213.333 95.573 213.333 213.333-95.573 213.333-213.333 213.333zM896 170.667h-106.667v-106.667h-42.667v106.667h-106.667v42.667h106.667v106.667h42.667v-106.667h106.667v-42.667z" />
<glyph unicode="&#xe956;" glyph-name="add-home-work" data-tags="add-home-work" d="M469.333 362.667h-256v-213.333h-85.333v297.387l213.333 152.32 213.333-152.32v-46.080c24.32 25.173 53.333 45.653 85.333 60.587v29.44l-298.667 213.333-298.667-213.333v-426.667h256v213.333h85.333v-213.333h114.347c-18.347 38.827-29.013 81.92-29.013 128v170.667zM725.333 661.333h85.333v-85.333h-85.333zM981.333 400.64v431.36h-554.667v-84.053l85.333-61.013v59.733h384v-285.013c32-15.36 61.013-35.84 85.333-61.013zM981.333 192c0 117.76-95.573 213.333-213.333 213.333s-213.333-95.573-213.333-213.333 95.573-213.333 213.333-213.333 213.333 95.573 213.333 213.333zM746.667 64v106.667h-106.667v42.667h106.667v106.667h42.667v-106.667h106.667v-42.667h-106.667v-106.667h-42.667z" />
<glyph unicode="&#xe957;" glyph-name="add-ic-call" data-tags="add-ic-call" d="M853.333 300.8c-53.333 0-104.533 8.533-152.32 24.32-4.267 1.28-8.96 2.133-13.227 2.133-11.093 0-21.76-4.267-30.293-12.373l-93.867-93.867c-121.681 62.791-218.383 159.493-279.489 277.593l-1.685 3.58 93.867 94.293c7.872 7.479 12.768 18.025 12.768 29.715 0 4.633-0.769 9.087-2.187 13.24l0.085-0.288c-15.42 45.258-24.321 97.393-24.321 151.606 0 0.251 0 0.502 0.001 0.753v-0.039c0 23.467-19.2 42.667-42.667 42.667h-149.333c-23.467 0-42.667-19.2-42.667-42.667 0-400.64 324.693-725.333 725.333-725.333 23.467 0 42.667 19.2 42.667 42.667v149.333c0 23.467-19.2 42.667-42.667 42.667zM214.613 748.8h64c2.987-37.547 9.387-74.667 19.2-110.080l-51.2-51.627c-17.067 51.627-28.16 105.387-32 161.707zM810.667 152.747c-56.32 3.84-110.933 14.933-162.133 32.427l51.2 51.2c36.267-10.24 73.387-16.64 110.933-19.2v-64.427zM768 706.133v128h-85.333v-128h-128v-85.333h128v-128h85.333v128h128v85.333z" />
<glyph unicode="&#xe958;" glyph-name="add-link" data-tags="add-link" d="M341.333 490.667h341.333v-85.333h-341.333v85.333zM857.6 448h81.067c0 117.76-95.573 213.333-213.333 213.333h-170.667v-81.067h170.667c72.96 0 132.267-59.307 132.267-132.267zM166.4 448c0 72.96 59.307 132.267 132.267 132.267h170.667v81.067h-170.667c-117.76 0-213.333-95.573-213.333-213.333s95.573-213.333 213.333-213.333h170.667v81.067h-170.667c-72.96 0-132.267 59.307-132.267 132.267zM810.667 448h-85.333v-128h-128v-85.333h128v-128h85.333v128h128v85.333h-128v128z" />
<glyph unicode="&#xe959;" glyph-name="add-location" data-tags="add-location" d="M554.667 704v-128h128v-85.333h-128v-128h-85.333v128h-128v85.333h128v128h85.333zM768 524.8c0 154.88-113.067 264.533-256 264.533s-256-109.653-256-264.533c0-99.84 83.2-232.107 256-389.973 172.8 157.867 256 290.133 256 389.973zM512 874.667c179.2 0 341.333-137.387 341.333-349.867 0-141.653-113.92-309.333-341.333-503.467-227.413 194.133-341.333 361.813-341.333 503.467 0 212.48 162.133 349.867 341.333 349.867z" />
<glyph unicode="&#xe95a;" glyph-name="add-location-alt" data-tags="add-location-alt" d="M853.333 917.333v-128h128v-85.333h-128v-128h-85.333v128h-128v85.333h128v128h85.333zM512 405.333c-46.933 0-85.333 38.4-85.333 85.333s38.4 85.333 85.333 85.333 85.333-38.4 85.333-85.333-38.4-85.333-85.333-85.333zM554.667 829.44v-86.187c-12.796 2.128-27.569 3.368-42.622 3.413h-0.044c-142.933 0-256-109.653-256-264.533 0-99.84 83.2-232.107 256-389.973 172.8 157.867 256 289.707 256 389.973v8.533h85.333v-8.533c0-141.653-113.92-309.333-341.333-503.467-227.413 194.133-341.333 361.813-341.333 503.467 0 212.48 162.133 349.867 341.333 349.867 14.507 0 28.587-0.853 42.667-2.56z" />
<glyph unicode="&#xe95b;" glyph-name="add-moderator" data-tags="add-moderator" d="M256 486.827v200.533l256 96 256-96v-157.44c30.293-4.267 58.88-13.227 85.333-25.6v242.347l-341.333 128-341.333-128v-259.84c0-215.467 145.493-416.427 341.333-465.493 1.28 0.427 2.133 0.853 3.413 0.853-33.707 33.28-59.733 75.093-74.667 121.173-109.653 68.693-184.747 201.387-184.747 343.467zM725.333 448c-117.76 0-213.333-95.573-213.333-213.333s95.573-213.333 213.333-213.333 213.333 95.573 213.333 213.333-95.573 213.333-213.333 213.333zM853.333 213.333h-106.667v-106.667h-42.667v106.667h-106.667v42.667h106.667v106.667h42.667v-106.667h106.667v-42.667z" />
<glyph unicode="&#xe95c;" glyph-name="add-photo-alternate" data-tags="add-photo-alternate" d="M768 106.667h-597.333v597.333h384v85.333h-384c-46.933 0-85.333-38.4-85.333-85.333v-597.333c0-46.933 38.4-85.333 85.333-85.333h597.333c46.933 0 85.333 38.4 85.333 85.333v384h-85.333v-384zM435.627 241.92l-83.627 100.693-117.333-150.613h469.333l-151.040 200.96zM853.333 789.333v128h-85.333v-128h-128c0.427-0.427 0-85.333 0-85.333h128v-127.573c0.427-0.427 85.333 0 85.333 0v127.573h128v85.333h-128z" />
<glyph unicode="&#xe95d;" glyph-name="add-reaction" data-tags="add-reaction" d="M298.667 554.667c0 35.413 28.587 64 64 64s64-28.587 64-64-28.587-64-64-64-64 28.587-64 64zM512 213.333c99.413 0 183.893 62.293 218.027 149.333h-436.053c34.133-87.040 118.613-149.333 218.027-149.333zM661.333 490.667c35.413 0 64 28.587 64 64s-28.587 64-64 64-64-28.587-64-64 28.587-64 64-64zM938.667 917.333h-85.333v-85.333h-85.333v-85.333h85.333v-85.333h85.333v85.333h85.333v85.333h-85.333v85.333zM853.333 448c0-188.587-152.747-341.333-341.333-341.333s-341.333 152.747-341.333 341.333 152.747 341.333 341.333 341.333c62.293 0 120.32-17.067 170.667-46.080v95.573c-50.198 22.646-108.825 35.84-170.535 35.84-0.197 0-0.393 0-0.59 0h0.031c-235.52 0-426.24-191.147-426.24-426.667s190.72-426.667 426.24-426.667c235.947 0 427.093 191.147 427.093 426.667 0 44.8-7.253 87.467-20.053 128h-90.88c16.213-39.68 25.6-82.773 25.6-128z" />
<glyph unicode="&#xe95e;" glyph-name="add-road" data-tags="add-road" d="M853.333 192v128h-85.333v-128h-128v-85.333h128v-128h85.333v128h128v85.333zM768 789.333h85.333v-384h-85.333zM170.667 789.333h85.333v-682.667h-85.333zM469.333 789.333h85.333v-170.667h-85.333zM469.333 533.333h85.333v-170.667h-85.333zM469.333 277.333h85.333v-170.667h-85.333z" />
<glyph unicode="&#xe95f;" glyph-name="add-shopping-cart" data-tags="add-shopping-cart" d="M469.333 576h85.333v128h128v85.333h-128v128h-85.333v-128h-128v-85.333h128v-128zM298.667 192c-46.933 0-84.907-38.4-84.907-85.333s37.973-85.333 84.907-85.333 85.333 38.4 85.333 85.333-38.4 85.333-85.333 85.333zM725.333 192c-46.933 0-84.907-38.4-84.907-85.333s37.973-85.333 84.907-85.333 85.333 38.4 85.333 85.333-38.4 85.333-85.333 85.333zM345.6 405.333h317.867c32 0 60.16 17.493 74.667 43.947l164.693 299.093-74.24 40.96-165.12-298.667h-299.52l-181.76 384h-139.52v-85.333h85.333l153.6-323.84-57.6-104.107c-31.147-57.173 9.813-126.72 74.667-126.72h512v85.333h-512l46.933 85.333z" />
<glyph unicode="&#xe960;" glyph-name="add-task" data-tags="add-task" d="M938.667 738.987l-486.827-487.253-180.907 180.907 60.16 60.16 120.747-120.747 426.667 426.667 60.16-59.733zM512 106.667c-188.16 0-341.333 153.173-341.333 341.333s153.173 341.333 341.333 341.333c66.987 0 129.707-19.627 182.613-53.333l61.867 61.867c-68.182 48.052-152.972 76.8-244.477 76.8-0.001 0-0.003 0-0.004 0h0.001c-235.52 0-426.667-191.147-426.667-426.667s191.147-426.667 426.667-426.667c73.813 0 143.36 18.773 203.947 52.053l-64 64c-42.667-19.627-90.027-30.72-139.947-30.72zM810.667 320h-128v-85.333h128v-128h85.333v128h128v85.333h-128v128h-85.333v-128z" />
<glyph unicode="&#xe961;" glyph-name="add-to-drive" data-tags="add-to-drive" d="M810.667 490.667c7.253 0 14.080-0.427 20.907-0.853l-191.573 342.187h-256l242.347-419.84c46.551 48.424 111.874 78.507 184.224 78.507 0.034 0 0.068 0 0.102 0h-0.005zM347.733 767.147l-262.4-468.48 128-234.667 270.080 468.053zM563.2 298.667h-140.8l-135.253-234.667h333.227c-40.752 44.749-65.707 104.508-65.707 170.095 0 0.201 0 0.402 0.001 0.603v-0.032c0 22.187 2.987 43.52 8.533 64zM853.333 277.333v128h-85.333v-128h-128v-85.333h128v-128h85.333v128h128v85.333z" />
<glyph unicode="&#xe962;" glyph-name="add-to-home-screen" data-tags="add-to-home-screen" d="M768 916.907l-426.667 0.427c-46.933 0-85.333-38.4-85.333-85.333v-128h85.333v42.667h426.667v-597.333h-426.667v42.667h-85.333v-128c0-46.933 38.4-85.333 85.333-85.333h426.667c46.933 0 85.333 38.4 85.333 85.333v768c0 46.933-38.4 84.907-85.333 84.907zM426.667 320h85.333v298.667h-298.667v-85.333h153.173l-238.507-238.507 60.16-60.16 238.507 238.507v-153.173z" />
<glyph unicode="&#xe963;" glyph-name="add-to-photos" data-tags="add-to-photos" d="M170.667 704h-85.333v-597.333c0-46.933 38.4-85.333 85.333-85.333h597.333v85.333h-597.333v597.333zM853.333 874.667h-512c-46.933 0-85.333-38.4-85.333-85.333v-512c0-46.933 38.4-85.333 85.333-85.333h512c46.933 0 85.333 38.4 85.333 85.333v512c0 46.933-38.4 85.333-85.333 85.333zM853.333 277.333h-512v512h512v-512zM554.667 320h85.333v170.667h170.667v85.333h-170.667v170.667h-85.333v-170.667h-170.667v-85.333h170.667z" />
<glyph unicode="&#xe964;" glyph-name="add-to-queue" data-tags="add-to-queue" d="M469.333 320h85.333v128h128v85.333h-128v128h-85.333v-128h-128v-85.333h128zM896 832h-768c-47.36 0-85.333-37.973-85.333-85.333v-512c0-47.128 38.205-85.333 85.333-85.333v0h213.333v-85.333h341.333v85.333h213.333c46.933 0 85.333 38.4 85.333 85.333v512c0 47.128-38.205 85.333-85.333 85.333v0zM896 234.667h-768v512h768v-512z" />
<glyph unicode="&#xe965;" glyph-name="adf-scanner" data-tags="adf-scanner" d="M810.667 448h-42.667v341.333h-512v-341.333h-42.667c-70.827 0-128-57.173-128-128v-213.333h853.333v213.333c0 70.827-57.173 128-128 128zM341.333 704h341.333v-256h-341.333v256zM853.333 192h-682.667v128c0 23.467 19.2 42.667 42.667 42.667h597.333c23.467 0 42.667-19.2 42.667-42.667v-128zM810.667 277.333c0-23.564-19.103-42.667-42.667-42.667s-42.667 19.103-42.667 42.667c0 23.564 19.103 42.667 42.667 42.667s42.667-19.103 42.667-42.667z" />
<glyph unicode="&#xe966;" glyph-name="adjust" data-tags="adjust" d="M512 874.667c-235.093 0-426.667-191.573-426.667-426.667s191.573-426.667 426.667-426.667 426.667 191.573 426.667 426.667-191.573 426.667-426.667 426.667zM512 106.667c-188.16 0-341.333 153.173-341.333 341.333s153.173 341.333 341.333 341.333 341.333-153.173 341.333-341.333-153.173-341.333-341.333-341.333zM640 448c0-70.827-57.173-128-128-128s-128 57.173-128 128 57.173 128 128 128 128-57.173 128-128z" />
<glyph unicode="&#xe967;" glyph-name="admin-panel-settings" data-tags="admin-panel-settings" d="M773.12 298.667c0-26.392-21.395-47.787-47.787-47.787s-47.787 21.395-47.787 47.787c0 26.392 21.395 47.787 47.787 47.787s47.787-21.395 47.787-47.787zM725.333 213.333c-31.147 0-93.44-15.36-95.573-46.080 21.333-30.293 56.32-49.92 95.573-49.92s74.24 19.627 95.573 49.92c-2.133 30.72-64.427 46.080-95.573 46.080zM768 486.827v205.653l-320 139.52-320-139.52v-209.493c0-193.707 136.533-375.040 320-418.987 23.467 5.547 46.080 13.653 68.267 23.467 46.678-66.135 122.781-108.8 208.848-108.8 0.077 0 0.154 0 0.231 0h-0.012c141.227 0 256 114.773 256 256 0 126.72-92.16 231.68-213.333 252.16zM469.333 234.667c0-23.893 3.413-47.36 9.813-69.12-10.24-4.693-20.48-9.387-31.147-12.8-135.253 42.667-234.667 180.907-234.667 330.24v153.6l234.667 102.4 234.667-102.4v-149.76c-121.173-20.48-213.333-125.44-213.333-252.16zM725.333 64c-94.293 0-170.667 76.373-170.667 170.667s76.373 170.667 170.667 170.667 170.667-76.373 170.667-170.667-76.373-170.667-170.667-170.667z" />
<glyph unicode="&#xe968;" glyph-name="adobe" data-tags="adobe" d="M809.387 832h-596.053c-46.933 0-85.333-38.4-85.333-85.333v-597.333c0-46.933 38.4-85.333 85.333-85.333h596.053c46.933 0 85.333 38.4 85.333 85.333v597.333c0 47.128-38.205 85.333-85.333 85.333v0zM741.547 235.52c-1.28-0.427-2.987-0.853-4.267-0.853h-96.427c-0.105-0.002-0.23-0.003-0.354-0.003-8.621 0-16.023 5.218-19.22 12.667l-0.052 0.136-104.96 244.907c-0.853 2.56-3.413 3.84-5.547 2.987-1.383-0.531-2.456-1.604-2.975-2.952l-0.012-0.035-65.28-155.733c-1.28-2.987 0-5.973 2.987-7.253 0.853-0.427 1.28-0.427 2.133-0.427h71.68c4.267 0 8.533-2.56 10.24-6.827l31.573-69.973c2.987-6.4-0.427-14.080-6.827-17.067-2.56 0-4.267-0.427-5.973-0.427h-261.12c-6.4 0-11.947 5.547-11.947 11.947 0 1.707 0.427 2.987 0.853 4.693l166.4 395.947c3.413 8.533 11.947 14.080 20.907 14.080h96c9.387 0 17.493-5.547 20.907-14.080l167.253-395.947c2.987-5.973 0.427-13.227-5.973-15.787z" />
<glyph unicode="&#xe969;" glyph-name="ads-click" data-tags="ads-click" d="M499.627 192.427c-135.927 6.625-243.627 118.443-243.627 255.416 0 0.055 0 0.11 0 0.166v-0.008c0 141.227 114.773 256 256 256 137.387 0 249.173-107.947 255.573-243.627l-89.6 26.88c-18.356 75.938-85.728 131.468-166.070 131.468-94.233 0-170.624-76.391-170.624-170.624 0-80.342 55.529-147.715 130.302-165.832l1.166-0.239 26.88-89.6zM938.667 448c0-12.8-0.427-25.6-1.707-38.4l-84.053 25.173c0.427 4.267 0.427 8.96 0.427 13.227 0 188.587-152.747 341.333-341.333 341.333s-341.333-152.747-341.333-341.333 152.747-341.333 341.333-341.333c4.267 0 8.96 0 13.227 0.427l25.173-84.053c-12.8-1.28-25.6-1.707-38.4-1.707-235.52 0-426.667 191.147-426.667 426.667s191.147 426.667 426.667 426.667 426.667-191.147 426.667-426.667zM777.813 266.24l160.853 53.76-426.667 128 128-426.667 53.76 160.853 182.187-182.187 84.48 84.48-182.613 181.76z" />
<glyph unicode="&#xe96a;" glyph-name="ad-units" data-tags="ad-units" d="M725.333 917.333h-426.667c-46.933 0-85.333-38.4-85.333-85.333v-768c0-46.933 38.4-85.333 85.333-85.333h426.667c46.933 0 85.333 38.4 85.333 85.333v768c0 46.933-38.4 85.333-85.333 85.333zM298.667 789.333v42.667h426.667v-42.667h-426.667zM298.667 192v512h426.667v-512h-426.667zM298.667 64v42.667h426.667v-42.667h-426.667zM682.667 661.333h-341.333v-85.333h341.333v85.333z" />
<glyph unicode="&#xe96b;" glyph-name="agriculture" data-tags="agriculture" d="M170.667 576h213.333c0 46.933-38.4 85.333-85.333 85.333h-128c-23.467 0-42.667-19.2-42.667-42.667s19.2-42.667 42.667-42.667zM938.667 360.107v258.56c0 46.933-38.4 85.333-85.333 85.333h-268.373l-45.227 45.227 60.16 60.16-30.293 30.293-150.613-150.613 30.293-30.293 60.16 60.16 45.227-45.227v-97.707c0-46.933-38.4-85.333-85.333-85.333h-87.040c-9.387 6.827-19.2 12.8-29.44 18.347l-17.067-37.973-19.627 8.96 17.067 38.4c-23.467 9.387-49.92 14.933-77.227 14.933-22.613 0-44.373-4.693-64.853-11.093l14.507-38.827-20.053-7.68-14.933 39.68c-45.357-20.18-81.372-54.541-103.13-97.366l-0.55-1.194 37.973-17.067-8.96-19.627-38.4 17.067c-9.387-23.467-14.933-49.92-14.933-77.227 0-22.613 4.693-44.373 11.093-64.853l38.827 14.507 7.68-20.053-39.68-14.933c20.18-45.357 54.541-81.372 97.366-103.13l1.194-0.55 17.067 37.973 19.627-8.96-17.067-38.4c23.467-9.387 49.92-14.933 77.227-14.933 22.613 0 44.373 4.693 64.853 11.093l-14.507 38.827 20.053 7.68 14.933-39.68c45.357 20.18 81.372 54.541 103.13 97.366l0.55 1.194-37.973 17.067 8.96 19.627 38.4-17.067c4.267 11.093 7.68 23.040 10.24 34.987h220.16c-0.853-7.253-2.133-14.507-2.133-21.76 0-82.347 66.987-149.333 149.333-149.333s149.333 66.987 149.333 149.333c0 40.533-16.213 77.227-42.667 104.107zM256 192c-70.827 0-128 57.173-128 128s57.173 128 128 128 128-57.173 128-128-57.173-128-128-128zM463.787 362.667c-1.707 7.68-3.413 14.933-5.547 22.187l-38.827-14.507-7.68 20.053 39.68 14.933h17.92c94.293 0 170.667 76.373 170.667 170.667v42.667h213.333v-215.467c-6.827 0.853-14.080 2.133-21.333 2.133-40.533 0-77.227-16.213-104.107-42.667h-264.107zM832 192c-35.413 0-64 28.587-64 64s28.587 64 64 64 64-28.587 64-64-28.587-64-64-64z" />
<glyph unicode="&#xe96c;" glyph-name="air" data-tags="air" d="M618.667 234.667c0-70.4-57.6-128-128-128s-128 57.6-128 128h85.333c0-23.467 19.2-42.667 42.667-42.667s42.667 19.2 42.667 42.667-19.2 42.667-42.667 42.667h-405.333v85.333h405.333c70.4 0 128-57.6 128-128zM810.667 682.667c0 82.347-66.987 149.333-149.333 149.333s-149.333-66.987-149.333-149.333h85.333c0 35.413 28.587 64 64 64s64-28.587 64-64-28.587-64-64-64h-576v-85.333h576c82.347 0 149.333 66.987 149.333 149.333zM789.333 490.667h-704v-85.333h704c35.413 0 64-28.587 64-64s-28.587-64-64-64v-85.333c82.347 0 149.333 66.987 149.333 149.333s-66.987 149.333-149.333 149.333z" />
<glyph unicode="&#xe96d;" glyph-name="airlines" data-tags="airlines" d="M739.84 192h-492.373l352 512h236.373l-96-512zM554.667 789.333l-469.333-682.667h725.333l128 682.667h-384zM618.667 576c-58.91 0-106.667-47.756-106.667-106.667s47.756-106.667 106.667-106.667v0c58.91 0 106.667 47.756 106.667 106.667s-47.756 106.667-106.667 106.667v0z" />
<glyph unicode="&#xe96e;" glyph-name="airline-seat-flat" data-tags="airline-seat-flat" d="M213.333 405.333c70.647 0.060 127.894 57.345 127.894 128 0 35.744-14.651 68.067-38.276 91.289l-0.018 0.018c-25.173 24.32-57.6 36.693-89.6 36.693-70.647-0.060-127.894-57.345-127.894-128 0-35.744 14.651-68.067 38.276-91.289l0.018-0.018c25.173-24.32 57.6-36.693 89.6-36.693zM183.040 563.2c7.753 7.926 18.557 12.84 30.509 12.84 11.526 0 21.985-4.57 29.663-11.998l-0.012 0.011c17.067-16.64 17.067-43.093 0.853-60.16-8.533-8.533-19.2-13.227-30.72-13.227-11.093 0-21.76 4.267-29.867 11.947-17.067 17.067-17.067 43.52-0.427 60.587zM768 661.333h-384v-256h554.667v85.333c0 94.293-76.373 170.667-170.667 170.667zM469.333 490.667v85.333h298.667c46.933 0 85.333-38.4 85.333-85.333h-384zM85.333 277.333h256v-85.333h341.333v85.333h256v85.333h-853.333z" />
<glyph unicode="&#xe96f;" glyph-name="airline-seat-flat-angled" data-tags="airline-seat-flat-angled" d="M256 682.667c13.227 0 29.867-6.4 38.4-23.893 10.24-21.333 0.853-46.933-20.053-57.173-5.405-2.735-11.783-4.337-18.535-4.337-16.602 0-30.941 9.685-37.677 23.713l-0.109 0.251c-2.886 5.551-4.578 12.121-4.578 19.085 0 16.747 9.786 31.209 23.951 37.979l0.254 0.109c5.973 2.56 11.947 4.267 18.347 4.267zM532.053 592.64l285.44-102.827c22.187-8.107 39.68-23.893 49.067-44.8 9.387-20.48 10.667-43.947 2.56-65.28l-0.427-0.853-366.507 132.693 29.867 81.067zM426.667 311.893l170.667-61.44v-15.787h-170.667v77.227zM256 768c-18.773 0-37.547-4.267-55.467-12.8-43.226-21.042-72.487-64.637-72.487-115.067 0-20.227 4.707-39.355 13.087-56.347l-0.333 0.748c21.013-43.239 64.601-72.516 115.027-72.516 20.244 0 39.386 4.718 56.386 13.115l-0.746-0.333c43.283 21.264 72.549 65.031 72.549 115.633 0 19.997-4.57 38.926-12.723 55.8l0.334-0.767c-21.291 43.255-65.040 72.501-115.622 72.533h-0.004zM481.28 701.867l-88.747-241.493 527.36-190.72 29.44 80.64c6.66 17.534 10.516 37.807 10.516 58.982 0 73.702-46.718 136.492-112.156 160.373l-1.186 0.379-365.227 131.84zM93.44 522.667l-29.44-80.64 277.333-99.84v-192.853h341.333v69.547l192.853-69.547 29.44 80.64-811.52 292.693z" />
<glyph unicode="&#xe970;" glyph-name="airline-seat-individual-suite" data-tags="airline-seat-individual-suite" d="M298.667 362.667c70.827 0 128 57.173 128 128s-57.173 128-128 128-128-57.173-128-128 57.173-128 128-128zM298.667 533.333c23.467 0 42.667-19.2 42.667-42.667s-19.2-42.667-42.667-42.667-42.667 19.2-42.667 42.667 19.2 42.667 42.667 42.667zM810.667 661.333h-341.333v-341.333h-341.333v341.333h-85.333v-426.667h938.667v256c0 94.293-76.373 170.667-170.667 170.667zM896 320h-341.333v256h256c46.933 0 85.333-38.4 85.333-85.333v-170.667z" />
<glyph unicode="&#xe971;" glyph-name="airline-seat-legroom-extra" data-tags="airline-seat-legroom-extra" d="M170.667 448v384h-85.333v-384c0-117.76 95.573-213.333 213.333-213.333h256v85.333h-256c-70.827 0-128 57.173-128 128zM974.080 224.427c-16.213 30.72-55.040 41.387-86.613 26.88l-46.507-21.333-145.493 297.813c-14.205 28.502-42.987 47.824-76.321 48.213h-149.812v256h-256v-341.333c0-70.827 57.173-128 128-128h298.667l145.493-298.667 158.72 72.533c32.853 15.36 46.933 55.467 29.867 87.893z" />
<glyph unicode="&#xe972;" glyph-name="airline-seat-legroom-normal" data-tags="airline-seat-legroom-normal" d="M213.333 448v384h-85.333v-384c0-117.76 95.573-213.333 213.333-213.333h256v85.333h-256c-70.827 0-128 57.173-128 128zM874.667 192h-64v298.667c0 46.933-38.4 85.333-85.333 85.333h-213.333v256h-256v-341.333c0-70.4 57.6-128 128-128h298.667v-298.667h192c35.413 0 64 28.587 64 64s-28.587 64-64 64z" />
<glyph unicode="&#xe973;" glyph-name="airline-seat-legroom-reduced" data-tags="airline-seat-legroom-reduced" d="M852.053 140.8c7.68-40.96-23.467-76.8-62.72-76.8h-192v128l42.667 170.667h-256c-70.4 0-128 57.6-128 128v341.333h256v-256h213.333c46.933 0 85.333-38.4 85.333-85.333l-85.333-298.667h61.44c31.147 0 59.307-20.907 65.28-51.2zM213.333 448v384h-85.333v-384c0-117.76 95.573-213.333 213.333-213.333h170.667v85.333h-170.667c-70.827 0-128 57.173-128 128z" />
<glyph unicode="&#xe974;" glyph-name="airline-seat-recline-extra" data-tags="airline-seat-recline-extra" d="M228.267 719.36c-38.4 27.307-47.787 80.213-20.907 119.040 26.88 38.4 80.213 47.787 119.040 20.907 38.4-27.307 47.787-80.213 20.907-119.040-27.307-38.4-80.213-47.787-119.040-20.907zM682.667 149.333h-301.653c-63.147 0-116.907 46.080-126.293 108.373l-84.053 403.627h-85.333l84.907-416.427c16.477-103.075 104.749-180.896 211.199-180.907h301.228v85.333zM692.48 320h-208.213l-43.947 174.933c67.413-37.973 139.947-65.707 219.733-52.053v90.88c-69.547-13.227-146.773 11.52-200.107 53.333l-69.973 54.187c-9.813 7.68-20.907 12.8-32.427 16.213-7.988 2.445-17.169 3.853-26.679 3.853-5.496 0-10.883-0.47-16.122-1.373l0.56 0.080h-0.853c-45.678-8.329-79.852-47.813-79.852-95.278 0-5.681 0.489-11.247 1.429-16.659l-0.083 0.577 57.6-252.587c11.775-59.649 63.627-104.024 125.858-104.107h292.276l162.987-128 64 64-246.187 192z" />
<glyph unicode="&#xe975;" glyph-name="airline-seat-recline-normal" data-tags="airline-seat-recline-normal" d="M323.84 729.173c-33.28 33.28-33.28 87.467 0 120.747s87.467 33.28 120.747 0 33.28-87.467 0-120.747c-33.707-33.707-87.467-33.707-120.747 0zM256 277.333v384h-85.333v-384c0-117.76 95.573-213.333 213.333-213.333h256v85.333h-256c-70.827 0-128 57.173-128 128zM853.333 103.68l-216.32 216.32h-146.347v157.013c59.733-49.067 153.6-92.16 234.667-92.16v92.16c-70.827-0.853-154.027 37.12-199.253 87.040l-59.733 66.133c-8.107 8.96-18.347 16.213-29.44 21.333-12.373 5.973-26.453 9.813-40.96 9.813h-1.28c-52.907 0-96-43.093-96-96v-245.333c0-70.827 57.173-128 128-128h216.32l149.333-149.333 61.013 61.013z" />
<glyph unicode="&#xe976;" glyph-name="airline-stops" data-tags="airline-stops" d="M810.667 588.8c-104.96-64-234.667-177.92-256-354.133h85.333v-85.333h-256v85.333h85.333c-21.333 192-186.453 341.333-384 341.333v85.333c187.307 0 350.72-108.8 426.667-268.8 58.88 126.72 164.693 214.613 254.293 269.227l-168.96-0.427v85.333h298.667v-298.667h-85.333v140.8z" />
<glyph unicode="&#xe977;" glyph-name="airplanemode-active" data-tags="airplanemode-active" d="M938.667 277.333v85.333l-362.667 213.333v234.667c0 35.413-28.587 64-64 64s-64-28.587-64-64v-234.667l-362.667-213.333v-85.333l362.667 106.667v-234.667l-106.667-64v-64l170.667 42.667 170.667-42.667v64l-106.667 64v234.667l362.667-106.667z" />
<glyph unicode="&#xe978;" glyph-name="airplanemode-inactive" data-tags="airplanemode-inactive" d="M448 632.747v177.92c0 35.413 28.587 64 64 64s64-28.587 64-64v-234.667l362.667-213.333v-85.333l-191.573 56.32-299.093 299.093zM843.947-4.693l60.16 60.16-784.213 784.64-60.587-60.16 272.213-272.213-246.187-145.067v-85.333l362.667 106.667v-234.667l-106.667-64v-64l170.667 42.667 170.667-42.667v64l-106.667 64v113.92l267.947-267.947z" />
<glyph unicode="&#xe979;" glyph-name="airplane-ticket" data-tags="airplane-ticket" d="M861.44 789.333h-690.773c-46.933 0-84.907-38.4-84.907-85.333v-170.667c46.933 0 84.907-38.4 84.907-85.333s-37.973-85.333-85.333-85.333v-170.667c0-46.933 38.4-85.333 85.333-85.333h682.667c46.933 0 85.333 38.4 85.333 85.333v512c0 46.933-34.56 85.333-77.227 85.333zM853.333 192h-682.667v108.373c50.773 29.44 85.333 84.907 85.333 147.627 0 63.147-34.133 118.187-84.907 147.627l-0.427 108.373h682.667v-512zM378.453 291.84l-70.827 122.88 39.68 10.667 53.76-42.24 101.973 27.307-102.4 177.493 59.733 16.213 171.093-159.573 104.107 27.733c3.164 0.871 6.797 1.371 10.547 1.371 18.917 0 34.861-12.732 39.73-30.094l0.070-0.29c0.797-3.064 1.254-6.582 1.254-10.206 0-19.201-12.837-35.403-30.397-40.493l-0.298-0.074-378.027-100.693z" />
<glyph unicode="&#xe97a;" glyph-name="airplay" data-tags="airplay" d="M256 21.333h512l-256 256zM896 832h-768c-46.933 0-85.333-38.4-85.333-85.333v-512c0-46.933 38.4-85.333 85.333-85.333h170.667v85.333h-170.667v512h768v-512h-170.667v-85.333h170.667c46.933 0 85.333 38.4 85.333 85.333v512c0 46.933-38.4 85.333-85.333 85.333z" />
<glyph unicode="&#xe97b;" glyph-name="airport-shuttle" data-tags="airport-shuttle" d="M725.333 746.667h-597.333c-47.128 0-85.333-38.205-85.333-85.333v0-384h85.333c0-70.827 57.173-128 128-128s128 57.173 128 128h256c0-70.827 57.173-128 128-128s128 57.173 128 128h85.333v213.333l-256 256zM640 661.333h42.667l128-128h-170.667v128zM384 661.333h170.667v-128h-170.667v128zM128 661.333h170.667v-128h-170.667v128zM256 224c-29.455 0-53.333 23.878-53.333 53.333s23.878 53.333 53.333 53.333v0c29.455 0 53.333-23.878 53.333-53.333s-23.878-53.333-53.333-53.333v0zM768 224c-29.455 0-53.333 23.878-53.333 53.333s23.878 53.333 53.333 53.333v0c29.455 0 53.333-23.878 53.333-53.333s-23.878-53.333-53.333-53.333v0zM896 362.667h-33.28c-23.467 26.027-57.173 42.667-94.72 42.667s-71.253-16.64-94.72-42.667h-322.56c-23.467 26.027-56.747 42.667-94.72 42.667s-71.253-16.64-94.72-42.667h-33.28v85.333h768v-85.333z" />
<glyph unicode="&#xe97c;" glyph-name="alarm" data-tags="alarm" d="M533.333 618.667h-64v-256l202.667-121.6 32 52.48-170.667 101.12zM739.712 882.773l196.565-164.053-54.613-65.493-196.693 163.968zM284.288 882.773l54.699-65.536-196.608-164.011-54.613 65.536zM512 789.333c-212.080-0.012-384-171.94-384-384.021 0-212.089 171.932-384.021 384.021-384.021 0.008 0 0.015 0 0.023 0h-0.001c212.080 0.012 384 171.94 384 384.021 0 212.089-171.932 384.021-384.021 384.021-0.008 0-0.015 0-0.023 0h0.001zM512 106.667c-164.693 0-298.667 133.973-298.667 298.667s133.973 298.667 298.667 298.667 298.667-133.973 298.667-298.667-133.973-298.667-298.667-298.667z" />
<glyph unicode="&#xe97d;" glyph-name="alarm-add" data-tags="alarm-add" d="M739.712 882.773l196.565-164.053-54.613-65.493-196.693 163.968zM284.288 882.773l54.699-65.536-196.608-164.011-54.613 65.536zM512 789.333c-212.080-0.012-384-171.94-384-384.021 0-212.089 171.932-384.021 384.021-384.021 0.008 0 0.015 0 0.023 0h-0.001c212.080 0.012 384 171.94 384 384.021 0 212.089-171.932 384.021-384.021 384.021-0.008 0-0.015 0-0.023 0h0.001zM512 106.667c-164.693 0-298.667 133.973-298.667 298.667s133.973 298.667 298.667 298.667 298.667-133.973 298.667-298.667-133.973-298.667-298.667-298.667zM554.667 576h-85.333v-128h-128v-85.333h128v-128h85.333v128h128v85.333h-128z" />
<glyph unicode="&#xe97e;" glyph-name="alarm-off" data-tags="alarm-off" d="M428.373 691.627c26.453 7.68 54.613 12.373 83.627 12.373 164.693 0 298.667-133.973 298.667-298.667 0-29.013-4.693-57.173-12.373-83.627l66.56-66.56c20.053 46.080 31.147 96.853 31.147 150.187 0 0.015 0 0.032 0 0.050 0 212.077-171.923 384-384 384-54.416 0-106.189-11.319-153.092-31.731l2.479 0.961 66.987-66.987zM739.712 882.773l196.565-164.053-54.613-65.493-196.693 163.968zM128.853 870.4l-60.16-60.16 58.453-58.453-39.253-32.853 54.613-65.707 45.227 37.547 34.133-34.133c-58.31-66.775-93.867-154.724-93.867-250.979 0-0.115 0-0.23 0-0.346v0.018c0-212.077 171.923-384 384-384v0c96 0 183.893 35.413 251.307 93.867l89.6-89.6 60.16 60.16-784.213 784.64zM512 106.667c-164.693 0-298.667 133.973-298.667 298.667 0 72.533 26.027 139.093 69.12 190.72l420.267-420.267c-51.143-42.997-117.719-69.12-190.396-69.12-0.114 0-0.228 0-0.341 0h0.018zM319.147 800.853l19.627 16.213-54.613 65.707-25.6-21.333z" />
<glyph unicode="&#xe97f;" glyph-name="alarm-on" data-tags="alarm-on" d="M449.707 340.053l-90.88 90.88-45.227-45.227 135.68-135.68 256 256-45.227 45.227zM739.712 882.773l196.565-164.053-54.613-65.493-196.693 163.968zM284.288 882.773l54.699-65.536-196.608-164.011-54.613 65.536zM512 789.333c-212.080-0.012-384-171.94-384-384.021 0-212.089 171.932-384.021 384.021-384.021 0.008 0 0.015 0 0.023 0h-0.001c212.080 0.012 384 171.94 384 384.021 0 212.089-171.932 384.021-384.021 384.021-0.008 0-0.015 0-0.023 0h0.001zM512 106.667c-164.693 0-298.667 133.973-298.667 298.667s133.973 298.667 298.667 298.667 298.667-133.973 298.667-298.667-133.973-298.667-298.667-298.667z" />
<glyph unicode="&#xe980;" glyph-name="album" data-tags="album" d="M512 874.667c-235.52 0-426.667-191.147-426.667-426.667s191.147-426.667 426.667-426.667 426.667 191.147 426.667 426.667-191.147 426.667-426.667 426.667zM512 106.667c-188.16 0-341.333 153.173-341.333 341.333s153.173 341.333 341.333 341.333 341.333-153.173 341.333-341.333-153.173-341.333-341.333-341.333zM512 640c-106.24 0-192-85.76-192-192s85.76-192 192-192 192 85.76 192 192-85.76 192-192 192zM512 405.333c-23.467 0-42.667 19.2-42.667 42.667s19.2 42.667 42.667 42.667 42.667-19.2 42.667-42.667-19.2-42.667-42.667-42.667z" />
<glyph unicode="&#xe981;" glyph-name="align-horizontal-center" data-tags="align-horizontal-center" d="M469.333 874.667h85.333v-213.333h341.333v-128h-341.333v-170.667h213.333v-128h-213.333v-213.333h-85.333v213.333h-213.333v128h213.333v170.667h-341.333v128h341.333z" />
<glyph unicode="&#xe982;" glyph-name="align-horizontal-left" data-tags="align-horizontal-left" d="M170.667 21.333h-85.333v853.333h85.333v-853.333zM938.667 661.333h-682.667v-128h682.667v128zM682.667 362.667h-426.667v-128h426.667v128z" />
<glyph unicode="&#xe983;" glyph-name="align-horizontal-right" data-tags="align-horizontal-right" d="M853.333 874.667h85.333v-853.333h-85.333v853.333zM85.333 533.333h682.667v128h-682.667v-128zM341.333 234.667h426.667v128h-426.667v-128z" />
<glyph unicode="&#xe984;" glyph-name="align-vertical-bottom" data-tags="align-vertical-bottom" d="M938.667 21.333h-853.333v85.333h853.333v-85.333zM426.667 874.667h-128v-682.667h128v682.667zM725.333 618.667h-128v-426.667h128v426.667z" />
<glyph unicode="&#xe985;" glyph-name="align-vertical-center" data-tags="align-vertical-center" d="M938.667 490.667h-213.333v213.333h-128v-213.333h-170.667v341.333h-128v-341.333h-220.16v-85.333h220.16v-341.333h128v341.333h170.667v-213.333h128v213.333h213.333z" />
<glyph unicode="&#xe986;" glyph-name="align-vertical-top" data-tags="align-vertical-top" d="M938.667 874.667v-85.333h-853.333v85.333h853.333zM298.667 21.333h128v682.667h-128v-682.667zM597.333 277.333h128v426.667h-128v-426.667z" />
<glyph unicode="&#xe987;" glyph-name="all-inbox" data-tags="all-inbox" d="M810.667 832h-597.333c-46.933 0-85.333-38.4-85.333-85.333v-298.667c0-46.933 38.4-85.333 85.333-85.333h597.333c46.933 0 85.333 38.4 85.333 85.333v298.667c0 46.933-38.4 85.333-85.333 85.333zM213.333 533.333h133.547c8.96-33.28 28.587-62.72 54.187-85.333h-187.733v85.333zM810.667 448h-187.733c25.6 22.613 45.227 52.053 54.187 85.333h133.547v-85.333zM810.667 618.667h-213.333v-42.667c0-45.653-39.68-85.333-85.333-85.333s-85.333 39.68-85.333 85.333v42.667h-213.333v128h597.333v-128zM725.333 320h-128v-42.667c0-20.053-8.107-38.4-20.48-53.333-15.787-19.2-39.253-32-64.853-32s-49.067 12.8-64.853 32c-12.373 14.933-20.48 33.28-20.48 53.333v42.667h-298.667v-170.667c0-46.933 38.4-85.333 85.333-85.333h597.333c46.933 0 85.333 38.4 85.333 85.333v170.667h-170.667zM213.333 234.667h133.547c0.853-3.84 2.56-7.253 3.84-10.667 10.24-29.013 27.733-54.613 50.347-74.667h-187.733v85.333zM810.667 149.333h-187.733c23.040 20.053 40.533 45.653 50.347 74.667 1.28 3.413 2.987 6.827 3.84 10.667h133.547v-85.333z" />
<glyph unicode="&#xe988;" glyph-name="all-inclusive" data-tags="all-inclusive" d="M793.6 677.547c-61.44 0-119.467-23.893-160.853-65.28l-299.947-266.24c-27.307-27.307-63.573-42.24-102.4-42.24-79.787 0-144.64 64.427-144.64 144.213s64.853 144.213 144.64 144.213c38.827 0 75.093-14.933 104.107-43.947l48.213-42.667 64.427 57.173-53.76 47.36c-41.493 41.646-98.896 67.414-162.318 67.414-0.235 0-0.47 0-0.705-0.001h0.037c-127.147 0-230.4-103.253-230.4-229.547s103.253-229.547 230.4-229.547c61.44 0 119.467 23.893 160.853 65.28l299.947 266.24c27.307 27.307 63.573 42.24 102.4 42.24 79.787 0 144.64-64.427 144.64-144.213s-64.853-144.213-144.64-144.213c-38.4 0-75.093 14.933-104.107 43.947l-48.64 43.093-64.427-57.173 54.187-47.787c41.554-41.395 98.876-66.988 162.175-66.988 0.285 0 0.571 0.001 0.856 0.002h-0.044c127.147 0 230.4 102.827 230.4 229.547s-103.253 229.12-230.4 229.12z" />
<glyph unicode="&#xe989;" glyph-name="all-out" data-tags="all-out" d="M170.667 789.333v-170.667l170.667 170.667zM682.667 789.333l170.667-170.667v170.667zM853.333 106.667v170.667l-170.667-170.667zM170.667 106.667h170.667l-170.667 170.667zM810.667 448c0 165.12-133.547 298.667-298.667 298.667s-298.667-133.547-298.667-298.667 133.547-298.667 298.667-298.667 298.667 133.547 298.667 298.667zM512 234.667c-117.76 0-213.333 95.573-213.333 213.333s95.573 213.333 213.333 213.333 213.333-95.573 213.333-213.333-95.573-213.333-213.333-213.333z" />
<glyph unicode="&#xe98a;" glyph-name="alternate-email" data-tags="alternate-email" d="M512 876.8c-235.52 0-426.667-191.147-426.667-426.667s191.147-426.667 426.667-426.667h213.333v85.333h-213.333c-185.173 0-341.333 156.16-341.333 341.333s156.16 341.333 341.333 341.333 341.333-156.16 341.333-341.333v-61.013c0-33.707-30.293-66.987-64-66.987s-64 33.28-64 66.987v61.013c0 117.76-95.573 213.333-213.333 213.333s-213.333-95.573-213.333-213.333 95.573-213.333 213.333-213.333c58.88 0 112.64 23.893 151.040 62.72 27.733-37.973 75.52-62.72 126.293-62.72 84.053 0 149.333 68.267 149.333 152.32v61.013c0 235.52-191.147 426.667-426.667 426.667zM512 322.133c-70.827 0-128 57.173-128 128s57.173 128 128 128 128-57.173 128-128-57.173-128-128-128z" />
<glyph unicode="&#xe98b;" glyph-name="alt-route" data-tags="alt-route" d="M417.28 483.84l-60.587-60.587c-34.165 34.159-60.412 76.236-75.753 123.243l-0.62 2.197 82.773 20.907c13.653-37.973 32.853-64 54.187-85.76zM469.333 704l-170.667 170.667-170.667-170.667h128.853c0.853-34.56 3.413-65.707 8.107-92.587l82.773 20.907c-2.987 20.48-5.12 44.8-5.547 71.68h127.147zM896 704l-170.667 170.667-170.667-170.667h127.573c-4.267-157.013-54.613-202.667-108.373-250.88-21.333-18.773-43.093-39.253-61.867-66.133-14.507 20.907-31.147 37.547-48.213 52.907l-60.16-60.16c39.68-36.267 65.707-65.707 65.707-145.067v-213.333h85.333v213.333c0 86.187 30.293 113.493 76.373 154.88 58.88 52.907 131.413 118.613 136.533 314.453h128.427z" />
<glyph unicode="&#xe98c;" glyph-name="amp-stories" data-tags="amp-stories" d="M298.667 149.333h426.667v640h-426.667v-640zM384 704h256v-469.333h-256v469.333zM128 704h85.333v-469.333h-85.333zM810.667 704h85.333v-469.333h-85.333z" />
<glyph unicode="&#xe98d;" glyph-name="analytics" data-tags="analytics" d="M810.667 832h-597.333c-46.933 0-85.333-38.4-85.333-85.333v-597.333c0-46.933 38.4-85.333 85.333-85.333h597.333c46.933 0 85.333 38.4 85.333 85.333v597.333c0 46.933-38.4 85.333-85.333 85.333zM810.667 149.333h-597.333v597.333h597.333v-597.333zM298.667 448h85.333v-213.333h-85.333zM640 661.333h85.333v-426.667h-85.333zM469.333 362.667h85.333v-128h-85.333zM469.333 533.333h85.333v-85.333h-85.333z" />
<glyph unicode="&#xe98e;" glyph-name="anchor" data-tags="anchor" d="M725.333 320l66.133-66.133c-40.96-72.107-142.080-129.707-236.8-143.787v380.587h128v85.333h-128v50.347c49.493 17.92 85.333 64.853 85.333 120.32 0 70.4-57.6 128-128 128s-128-57.6-128-128c0-55.467 35.84-102.4 85.333-120.32v-50.347h-128v-85.333h128v-380.587c-94.72 14.080-195.84 71.68-236.8 143.787l66.133 66.133-170.667 128v-128c0-165.547 209.92-298.667 384-298.667s384 133.12 384 298.667v128l-170.667-128zM512 789.333c23.467 0 42.667-19.2 42.667-42.667s-19.2-42.667-42.667-42.667-42.667 19.2-42.667 42.667 19.2 42.667 42.667 42.667z" />
<glyph unicode="&#xe98f;" glyph-name="android" data-tags="android" d="M750.933 555.52l78.507 135.68c6.827 13.227 1.707 29.44-11.093 36.267-3.645 1.939-7.971 3.078-12.562 3.078-9.543 0-17.938-4.919-22.787-12.359l-0.064-0.105-80.213-138.24c-56.279 24.478-121.836 38.718-190.72 38.718s-134.441-14.24-193.89-39.938l3.17 1.22-80.213 138.24c-4.97 7.545-13.404 12.455-22.984 12.455-5.221 0-10.102-1.459-14.257-3.991l0.121 0.069c-11.947-7.68-15.787-23.040-9.387-35.413l78.507-135.68c-129.291-74.858-217.853-207.628-230.294-361.893l-0.106-1.627h938.667c-12.547 155.892-101.109 288.662-228.193 362.339l-2.207 1.181zM298.667 309.333c-29.455 0-53.333 23.878-53.333 53.333s23.878 53.333 53.333 53.333v0c29.455 0 53.333-23.878 53.333-53.333s-23.878-53.333-53.333-53.333v0zM725.333 309.333c-29.455 0-53.333 23.878-53.333 53.333s23.878 53.333 53.333 53.333v0c29.455 0 53.333-23.878 53.333-53.333s-23.878-53.333-53.333-53.333v0z" />
<glyph unicode="&#xe990;" glyph-name="animation" data-tags="animation" d="M640 874.667c-115.627 0-215.467-65.707-265.387-161.28-55.040-29.083-98.918-72.961-127.21-126.365l-0.79-1.635c-96.527-50.928-161.213-150.596-161.28-265.377v-0.009c0-165.12 133.547-298.667 298.667-298.667 115.627 0 215.467 65.707 265.387 161.28 55.040 29.083 98.918 72.961 127.21 126.365l0.79 1.635c96.527 50.928 161.213 150.596 161.28 265.377v0.009c0 165.12-133.547 298.667-298.667 298.667zM384 106.667c-117.795 0.097-213.248 95.611-213.248 213.419 0 48.226 15.996 92.717 42.972 128.455l-0.391-0.54c0-165.12 133.547-298.667 298.667-298.667-35.84-26.88-80.213-42.667-128-42.667zM512 234.667c-117.795 0.097-213.248 95.611-213.248 213.419 0 48.226 15.996 92.717 42.972 128.455l-0.391-0.54c0-164.693 133.547-298.24 298.667-298.667-35.84-26.88-80.213-42.667-128-42.667zM712.533 375.467c-22.613-8.107-46.933-12.8-72.533-12.8-117.76 0-213.333 95.573-213.333 213.333 0 25.6 4.693 49.92 12.8 72.533 22.613 8.107 46.933 12.8 72.533 12.8 117.76 0 213.333-95.573 213.333-213.333 0-25.6-4.693-49.92-12.8-72.533zM810.667 448c0 164.693-133.547 298.24-298.667 298.667 35.134 26.431 79.499 42.329 127.577 42.329 117.868 0 213.419-95.551 213.419-213.419 0-48.078-15.898-92.443-42.724-128.125l0.394 0.548z" />
<glyph unicode="&#xe991;" glyph-name="announcement" data-tags="announcement" d="M853.333 874.667h-682.667c-46.933 0-85.333-38.4-85.333-85.333v-768l170.667 170.667h597.333c46.933 0 85.333 38.4 85.333 85.333v512c0 46.933-38.4 85.333-85.333 85.333zM853.333 277.333h-632.747l-49.92-49.92v561.92h682.667v-512zM469.333 746.667h85.333v-256h-85.333zM469.333 405.333h85.333v-85.333h-85.333z" />
<glyph unicode="&#xe992;" glyph-name="aod" data-tags="aod" d="M725.333 916.907l-426.667 0.427c-46.933 0-85.333-38.4-85.333-85.333v-768c0-46.933 38.4-85.333 85.333-85.333h426.667c46.933 0 85.333 38.4 85.333 85.333v768c0 46.933-38.4 84.907-85.333 84.907zM725.333 64h-426.667v42.667h426.667v-42.667zM725.333 192h-426.667v512h426.667v-512zM725.333 789.333h-426.667v42.667h426.667v-42.667zM341.333 533.333h341.333v-64h-341.333v64zM384 405.333h256v-64h-256v64z" />
<glyph unicode="&#xe993;" glyph-name="apartment" data-tags="apartment" d="M725.333 490.667v341.333h-426.667v-170.667h-170.667v-597.333h341.333v170.667h85.333v-170.667h341.333v426.667h-170.667zM298.667 149.333h-85.333v85.333h85.333v-85.333zM298.667 320h-85.333v85.333h85.333v-85.333zM298.667 490.667h-85.333v85.333h85.333v-85.333zM469.333 320h-85.333v85.333h85.333v-85.333zM469.333 490.667h-85.333v85.333h85.333v-85.333zM469.333 661.333h-85.333v85.333h85.333v-85.333zM640 320h-85.333v85.333h85.333v-85.333zM640 490.667h-85.333v85.333h85.333v-85.333zM640 661.333h-85.333v85.333h85.333v-85.333zM810.667 149.333h-85.333v85.333h85.333v-85.333zM810.667 320h-85.333v85.333h85.333v-85.333z" />
<glyph unicode="&#xe994;" glyph-name="api" data-tags="api" d="M597.333 448l-85.333-85.333-85.333 85.333 85.333 85.333 85.333-85.333zM512 704l90.453-90.453 106.667 106.667-197.12 197.12-197.12-197.12 106.667-106.667 90.453 90.453zM256 448l90.453 90.453-106.667 106.667-197.12-197.12 197.12-197.12 106.667 106.667-90.453 90.453zM768 448l-90.453-90.453 106.667-106.667 197.12 197.12-197.12 197.12-106.667-106.667 90.453-90.453zM512 192l-90.453 90.453-106.667-106.667 197.12-197.12 197.12 197.12-106.667 106.667-90.453-90.453z" />
<glyph unicode="&#xe995;" glyph-name="app-blocking" data-tags="app-blocking" d="M768 618.667c-94.293 0-170.667-76.373-170.667-170.667s76.373-170.667 170.667-170.667 170.667 76.373 170.667 170.667-76.373 170.667-170.667 170.667zM661.333 448c0 58.91 47.756 106.667 106.667 106.667v0c17.92 0 34.133-4.693 49.067-12.373l-143.36-143.36c-7.68 14.933-12.373 31.147-12.373 49.067zM768 341.333c-17.92 0-34.133 4.693-49.067 12.373l143.36 143.36c7.68-14.933 12.373-31.147 12.373-49.067 0-58.91-47.756-106.667-106.667-106.667v0zM725.333 192h-426.667v512h426.667v-42.667h85.333v170.667c0 46.933-38.4 85.333-85.333 85.333h-426.667c-46.933 0-85.333-38.4-85.333-85.333v-768c0-46.933 38.4-85.333 85.333-85.333h426.667c46.933 0 85.333 38.4 85.333 85.333v170.667h-85.333v-42.667zM298.667 832h426.667v-42.667h-426.667v42.667zM725.333 64h-426.667v42.667h426.667v-42.667z" />
<glyph unicode="&#xe996;" glyph-name="apple" data-tags="apple" d="M727.467 94.72c-41.813-40.533-87.467-34.133-131.413-14.933-46.507 19.627-89.173 20.48-138.24 0-61.44-26.453-93.867-18.773-130.56 14.933-208.213 214.613-177.493 541.44 58.88 553.387 57.6-2.987 97.707-31.573 131.413-34.133 50.347 10.24 98.56 39.68 152.32 35.84 64.427-5.12 113.067-30.72 145.067-76.8-133.12-79.787-101.547-255.147 20.48-304.213-24.32-64-55.893-127.573-108.373-174.507l0.427 0.427zM513.28 650.667c-6.4 95.147 70.827 173.653 159.573 181.333 12.373-110.080-99.84-192-159.573-181.333z" />
<glyph unicode="&#xe997;" glyph-name="app-registration" data-tags="app-registration" d="M426.667 789.333h170.667v-170.667h-170.667zM170.667 277.333h170.667v-170.667h-170.667zM170.667 533.333h170.667v-170.667h-170.667zM170.667 789.333h170.667v-170.667h-170.667zM682.667 789.333h170.667v-170.667h-170.667zM469.333 197.973v-91.307h89.6l255.147 254.72-90.453 90.453zM597.333 446.72v86.613h-170.667v-170.667h86.613zM889.6 466.773l-60.16 60.16c-8.533 8.533-21.76 8.533-30.293 0l-45.227-45.227 90.453-90.453 45.227 45.227c8.533 8.533 8.533 21.76 0 30.293z" />
<glyph unicode="&#xe998;" glyph-name="approval" data-tags="approval" d="M170.667 277.333v-256h682.667v256c0 46.933-38.4 85.333-85.333 85.333h-512c-46.933 0-85.333-38.4-85.333-85.333zM768 192h-512v85.333h512v-85.333zM512 874.667c-117.76 0-213.333-95.573-213.333-213.333l213.333-298.667 213.333 298.667c0 117.76-95.573 213.333-213.333 213.333zM512 490.667l-128 170.667c0 70.827 57.173 128 128 128s128-57.173 128-128l-128-170.667z" />
<glyph unicode="&#xe999;" glyph-name="apps" data-tags="apps" d="M170.667 618.667h170.667v170.667h-170.667v-170.667zM426.667 106.667h170.667v170.667h-170.667v-170.667zM170.667 106.667h170.667v170.667h-170.667v-170.667zM170.667 362.667h170.667v170.667h-170.667v-170.667zM426.667 362.667h170.667v170.667h-170.667v-170.667zM682.667 789.333v-170.667h170.667v170.667h-170.667zM426.667 618.667h170.667v170.667h-170.667v-170.667zM682.667 362.667h170.667v170.667h-170.667v-170.667zM682.667 106.667h170.667v170.667h-170.667v-170.667z" />
</font>
</defs>
</svg>
